<svg width="24" height="24" viewBox="0 0 24 24" fill="none" xmlns="http://www.w3.org/2000/svg">
<g id="Air">
<g id="Group 3825">
<path id="Vector" d="M19.6058 5H3.92636C3.68099 5.00019 3.4457 5.09765 3.27205 5.27102C3.09841 5.44439 3.00058 5.67952 3 5.9249L3 17.7272C3.00019 17.973 3.09781 18.2086 3.27145 18.3825C3.44509 18.5565 3.6806 18.6544 3.92636 18.655H4.25365V19.4002C4.25385 19.5591 4.317 19.7114 4.42928 19.8239C4.54157 19.9363 4.69383 19.9996 4.85272 20H7.48276C7.64172 19.9996 7.79405 19.9363 7.90645 19.8239C8.01885 19.7115 8.08217 19.5592 8.08255 19.4002V18.655H15.4496V19.4002C15.4498 19.5592 15.513 19.7117 15.6255 19.8241C15.7379 19.9366 15.8904 19.9998 16.0494 20H18.6794C18.8383 19.9996 18.9906 19.9363 19.1029 19.8239C19.2151 19.7114 19.2783 19.5591 19.2785 19.4002V18.655H19.6051C19.8511 18.6548 20.0871 18.557 20.2612 18.3831C20.4352 18.2092 20.5332 17.9733 20.5336 17.7272V5.9249C20.5324 5.67945 20.4342 5.44443 20.2604 5.27114C20.0866 5.09786 19.8512 5.00038 19.6058 5ZM7.56897 19.4002C7.56877 19.4228 7.55971 19.4444 7.54372 19.4604C7.52773 19.4764 7.5061 19.4855 7.48349 19.4857H4.85345C4.83084 19.4855 4.80921 19.4764 4.79322 19.4604C4.77723 19.4444 4.76816 19.4228 4.76797 19.4002V18.655H7.56897V19.4002ZM18.7656 19.4002C18.7653 19.4228 18.7561 19.4443 18.7402 19.4602C18.7242 19.4762 18.7027 19.4853 18.6802 19.4857H16.0501C16.0274 19.4855 16.0057 19.4764 15.9896 19.4605C15.9735 19.4445 15.9643 19.4229 15.9639 19.4002V18.655H18.7656V19.4002ZM19.6058 18.1414H3.92636C3.8719 18.1415 3.81796 18.1309 3.76761 18.1101C3.71727 18.0893 3.67152 18.0588 3.63298 18.0204C3.59444 17.9819 3.56386 17.9362 3.543 17.8859C3.52214 17.8356 3.5114 17.7817 3.5114 17.7272V5.9249C3.51159 5.81548 3.55514 5.71061 3.63251 5.63324C3.70988 5.55587 3.81475 5.51232 3.92417 5.51213H19.6058C19.6602 5.51184 19.7142 5.52229 19.7646 5.54289C19.8151 5.56349 19.8609 5.59382 19.8996 5.63216C19.9383 5.6705 19.969 5.71609 19.99 5.76632C20.0111 5.81655 20.022 5.87044 20.0222 5.9249V7.4547H16.7639C16.5935 7.4549 16.4302 7.52272 16.3098 7.64326C16.1893 7.76381 16.1217 7.92722 16.1217 8.0976V15.6765C16.1217 15.8469 16.1893 16.0103 16.3098 16.1308C16.4302 16.2514 16.5935 16.3192 16.7639 16.3194H20.0222V17.7272C20.0222 17.7818 20.0114 17.8358 19.9905 17.8862C19.9695 17.9366 19.9388 17.9824 19.9001 18.0209C19.8614 18.0594 19.8155 18.0898 19.765 18.1105C19.7145 18.1312 19.6604 18.1417 19.6058 18.1414ZM20.0054 7.9661V15.808H16.7639C16.7291 15.8078 16.6957 15.7939 16.6711 15.7693C16.6465 15.7447 16.6326 15.7113 16.6324 15.6765V8.0976C16.6326 8.06279 16.6465 8.02945 16.6711 8.00483C16.6957 7.98021 16.7291 7.96629 16.7639 7.9661H20.0054Z" fill="black"/>
<path id="Vector_2" d="M9.8045 6.37988C8.71532 6.37988 7.65059 6.70286 6.74497 7.30798C5.83934 7.9131 5.1335 8.77318 4.71668 9.77945C4.29987 10.7857 4.19081 11.893 4.4033 12.9613C4.61579 14.0295 5.14028 15.0108 5.91045 15.7809C6.68062 16.5511 7.66188 17.0756 8.73014 17.2881C9.79839 17.5006 10.9057 17.3915 11.9119 16.9747C12.9182 16.5579 13.7783 15.852 14.3834 14.9464C14.9885 14.0408 15.3115 12.9761 15.3115 11.8869C15.3098 10.4269 14.729 9.02716 13.6966 7.99477C12.6642 6.96238 11.2645 6.38162 9.8045 6.37988ZM9.8045 16.8832C8.81646 16.8832 7.85061 16.5903 7.02909 16.0413C6.20756 15.4924 5.56726 14.7122 5.18915 13.7994C4.81105 12.8865 4.71212 11.8821 4.90487 10.913C5.09763 9.94397 5.57342 9.05384 6.27207 8.35519C6.97072 7.65654 7.86085 7.18076 8.8299 6.988C9.79896 6.79524 10.8034 6.89417 11.7162 7.27228C12.6291 7.65039 13.4093 8.29069 13.9582 9.11221C14.5071 9.93374 14.8001 10.8996 14.8001 11.8876C14.7988 13.2121 14.272 14.482 13.3354 15.4186C12.3989 16.3551 11.129 16.8819 9.8045 16.8832Z" fill="black"/>
<path id="Vector_3" d="M11.0907 11.2243C11.3785 10.7902 11.529 10.2796 11.5225 9.7588C11.5225 8.54094 10.7517 7.55029 9.8049 7.55029C8.85808 7.55029 8.08733 8.54094 8.08733 9.7588C8.08094 10.2795 8.23111 10.79 8.51837 11.2243C7.99891 11.1914 7.48165 11.3165 7.03459 11.583C6.5534 11.8506 6.17099 12.2657 5.94385 12.7673C5.8379 12.9881 5.7859 13.231 5.79213 13.4758C5.79835 13.7207 5.86262 13.9606 5.97965 14.1758C6.08081 14.346 6.21502 14.4941 6.37438 14.6116C6.53373 14.729 6.71499 14.8134 6.90747 14.8596C7.08253 14.9054 7.26275 14.9285 7.4437 14.9283C7.9042 14.9224 8.35521 14.7965 8.75215 14.563C9.20575 14.3082 9.57248 13.9231 9.8049 13.4577C10.0373 13.9231 10.404 14.3082 10.8576 14.563C11.2545 14.7966 11.7056 14.9225 12.1661 14.9283C12.3468 14.9289 12.5269 14.9058 12.7016 14.8596C12.8942 14.8137 13.0756 14.7295 13.235 14.612C13.3944 14.4946 13.5285 14.3462 13.6294 14.1758C13.7467 13.9607 13.8112 13.7208 13.8176 13.4759C13.8239 13.231 13.772 12.9881 13.6659 12.7673C13.4377 12.284 13.0711 11.8793 12.6127 11.6047C12.1542 11.33 11.6245 11.1976 11.0907 11.2243ZM9.8049 8.04343C10.4814 8.04343 11.0315 8.81344 11.0315 9.76099C11.0418 10.2263 10.8926 10.681 10.6085 11.0497C10.3877 10.8517 10.1015 10.7423 9.8049 10.7423C9.5083 10.7423 9.22213 10.8517 9.00127 11.0497C8.71703 10.6811 8.5675 10.2263 8.57754 9.76099C8.57754 8.81125 9.12839 8.04343 9.8049 8.04343ZM8.50668 14.1349C8.06657 14.4049 7.53914 14.4944 7.03459 14.3847C6.90456 14.355 6.78183 14.2994 6.67366 14.2214C6.56549 14.1433 6.47408 14.0443 6.40484 13.9303C6.327 13.7808 6.28558 13.615 6.28393 13.4464C6.28228 13.2778 6.32045 13.1112 6.39534 12.9601C6.58096 12.557 6.89107 12.2241 7.28006 12.0104C7.67576 11.7685 8.14272 11.6702 8.60238 11.7321C8.54378 12.0232 8.59375 12.3257 8.74287 12.5825C8.892 12.8393 9.12996 13.0326 9.41185 13.126C9.23178 13.5543 8.91299 13.9096 8.50668 14.1349ZM9.06849 11.9673C9.06849 11.8217 9.11168 11.6793 9.19259 11.5582C9.27351 11.4371 9.38852 11.3427 9.52308 11.2869C9.65765 11.2312 9.80571 11.2166 9.94856 11.245C10.0914 11.2735 10.2226 11.3436 10.3256 11.4466C10.4286 11.5496 10.4987 11.6808 10.5272 11.8236C10.5556 11.9665 10.541 12.1146 10.4853 12.2491C10.4295 12.3837 10.3351 12.4987 10.214 12.5796C10.0929 12.6605 9.95055 12.7037 9.8049 12.7037C9.70819 12.7037 9.61243 12.6847 9.52308 12.6477C9.43374 12.6106 9.35256 12.5564 9.28418 12.488C9.21579 12.4196 9.16155 12.3385 9.12454 12.2491C9.08753 12.1598 9.06849 12.064 9.06849 11.9673ZM13.2042 13.9303C13.135 14.0444 13.0437 14.1434 12.9355 14.2215C12.8273 14.2995 12.7045 14.355 12.5745 14.3847C12.0699 14.4946 11.5424 14.4051 11.1024 14.1349C10.6962 13.9083 10.3777 13.552 10.1979 13.1231C10.48 13.0299 10.7182 12.8367 10.8673 12.5798C11.0165 12.3229 11.0663 12.0203 11.0074 11.7291C11.4671 11.6678 11.934 11.7663 12.3297 12.0082C12.7183 12.222 13.0279 12.5549 13.213 12.9579C13.2887 13.1091 13.3274 13.2761 13.3259 13.4452C13.3243 13.6143 13.2826 13.7805 13.2042 13.9303Z" fill="black"/>
<path id="Vector_4" d="M17.2672 10.7467H19.4056C19.4701 10.7419 19.5303 10.7128 19.5743 10.6654C19.6183 10.618 19.6427 10.5557 19.6427 10.4911C19.6427 10.4264 19.6183 10.3641 19.5743 10.3167C19.5303 10.2693 19.4701 10.2402 19.4056 10.2354H17.2672C17.2028 10.2402 17.1425 10.2693 17.0985 10.3167C17.0546 10.3641 17.0302 10.4264 17.0302 10.4911C17.0302 10.5557 17.0546 10.618 17.0985 10.6654C17.1425 10.7128 17.2028 10.7419 17.2672 10.7467Z" fill="black"/>
<path id="Vector_5" d="M17.2675 13.5383H19.4059C19.4737 13.5383 19.5388 13.5113 19.5867 13.4634C19.6347 13.4154 19.6616 13.3504 19.6616 13.2826C19.6616 13.2147 19.6347 13.1497 19.5867 13.1017C19.5388 13.0538 19.4737 13.0269 19.4059 13.0269H17.2675C17.1997 13.0269 17.1347 13.0538 17.0867 13.1017C17.0388 13.1497 17.0118 13.2147 17.0118 13.2826C17.0118 13.3504 17.0388 13.4154 17.0867 13.4634C17.1347 13.5113 17.1997 13.5383 17.2675 13.5383Z" fill="black"/>
<path id="Vector_6" d="M17.2675 9.35124H19.4059C19.4737 9.35124 19.5388 9.3243 19.5867 9.27635C19.6347 9.2284 19.6616 9.16336 19.6616 9.09554C19.6616 9.02773 19.6347 8.96269 19.5867 8.91474C19.5388 8.86678 19.4737 8.83984 19.4059 8.83984H17.2675C17.1997 8.83984 17.1347 8.86678 17.0867 8.91474C17.0388 8.96269 17.0118 9.02773 17.0118 9.09554C17.0118 9.16336 17.0388 9.2284 17.0867 9.27635C17.1347 9.3243 17.1997 9.35124 17.2675 9.35124Z" fill="black"/>
<path id="Vector_7" d="M17.2675 12.1427H19.4059C19.4737 12.1427 19.5388 12.1158 19.5867 12.0679C19.6347 12.0199 19.6616 11.9549 19.6616 11.887C19.6616 11.8192 19.6347 11.7542 19.5867 11.7062C19.5388 11.6583 19.4737 11.6313 19.4059 11.6313H17.2675C17.1997 11.6313 17.1347 11.6583 17.0867 11.7062C17.0388 11.7542 17.0118 11.8192 17.0118 11.887C17.0118 11.9549 17.0388 12.0199 17.0867 12.0679C17.1347 12.1158 17.1997 12.1427 17.2675 12.1427Z" fill="black"/>
<path id="Vector_8" d="M17.2675 14.9342H19.4059C19.4737 14.9342 19.5388 14.9073 19.5867 14.8594C19.6347 14.8114 19.6616 14.7464 19.6616 14.6786C19.6616 14.6107 19.6347 14.5457 19.5867 14.4977C19.5388 14.4498 19.4737 14.4229 19.4059 14.4229H17.2675C17.1997 14.4229 17.1347 14.4498 17.0867 14.4977C17.0388 14.5457 17.0118 14.6107 17.0118 14.6786C17.0118 14.7464 17.0388 14.8114 17.0867 14.8594C17.1347 14.9073 17.1997 14.9342 17.2675 14.9342Z" fill="black"/>
</g>
</g>
</svg>
