<svg width="24" height="24" viewBox="0 0 24 24" fill="none" xmlns="http://www.w3.org/2000/svg">
<g id="Balcony" clip-path="url(#clip0_335_30778)">
<path id="Vector" d="M28.7648 14.5506C28.9725 14.5506 29.1404 14.3826 29.1404 14.1749V13.3898H30.0615C30.2692 13.3898 30.4372 13.2219 30.4372 13.0142V11.6213C30.4372 11.4136 30.2692 11.2457 30.0615 11.2457H20.551V-5.62436C20.551 -5.83171 20.3831 -6 20.1754 -6H4.26138C4.05403 -6 3.88574 -5.83171 3.88574 -5.62436V11.2457H-5.62436C-5.83171 11.2457 -6 11.4136 -6 11.6213V13.0142C-6 13.2219 -5.83171 13.3898 -5.62436 13.3898H-4.70329V14.1749C-4.70329 14.3826 -4.535 14.5506 -4.32765 14.5506H-4.19505V25.4036H-5.62436C-5.83171 25.4036 -6 25.5715 -6 25.7792V27.6244C-6 27.8321 -5.83171 28 -5.62436 28H30.0615C30.2692 28 30.4372 27.8321 30.4372 27.6244V25.7792C30.4372 25.5715 30.2692 25.4036 30.0615 25.4036H28.6322V14.5506H28.7648ZM28.3892 13.7993H28.2566H26.5632H26.4302V13.3898H28.3888L28.3892 13.7993ZM23.6028 25.4036V14.5506H23.7354C23.9431 14.5506 24.111 14.3826 24.111 14.1749V13.3898H25.6797V14.1749C25.6797 14.3826 25.8476 14.5506 26.0553 14.5506H26.1883V25.4036H23.6028ZM18.5215 25.4036V14.5506H18.6541C18.8618 14.5506 19.0297 14.3826 19.0297 14.1749V13.3898H20.6495V14.1749C20.6495 14.3826 20.8174 14.5506 21.0251 14.5506H21.1581V25.4036H18.5215ZM13.4417 25.4036V14.5506H13.5739C13.7816 14.5506 13.9495 14.3826 13.9495 14.1749V13.3898H15.5689V14.1749C15.5689 14.3826 15.7368 14.5506 15.9446 14.5506H16.0772V25.4036H13.4417ZM8.36037 25.4036V14.5506H8.49298C8.70033 14.5506 8.86862 14.3826 8.86862 14.1749V13.3898H10.4884V14.1749C10.4884 14.3826 10.6567 14.5506 10.864 14.5506H10.9966V25.4036H8.36037ZM3.33017 25.4036V14.5506H3.46277C3.67012 14.5506 3.83841 14.3826 3.83841 14.1749V13.3898H5.40746V14.1749C5.40746 14.3826 5.57575 14.5506 5.7831 14.5506H5.9157V25.4036H3.33017ZM-1.75038 25.4036V14.5506H-1.61777C-1.41042 14.5506 -1.24213 14.3826 -1.24213 14.1749V13.3898H0.37763V14.1749C0.37763 14.3826 0.545918 14.5506 0.753271 14.5506H0.885872V25.4036H-1.75038ZM3.08713 13.7993H2.95453H1.26114H1.12854V13.3898H3.08713V13.7993ZM1.63678 14.5506H2.57889V25.4036H1.63678V14.5506ZM8.11733 13.7993H7.98473H6.29097H6.15837V13.3898H8.11696L8.11733 13.7993ZM6.66661 14.5506H7.60872V25.4036H6.66661V14.5506ZM13.1979 13.7993H13.0657H11.3719H11.2393V13.3898H13.1979V13.7993ZM11.7479 14.5506H12.6904V25.4036H11.7479V14.5506ZM18.2784 13.7993H18.1458H16.4521H16.3195V13.3898H18.278V13.7993H18.2784ZM16.8281 14.5506H17.7706V25.4036H16.8281V14.5506ZM23.3593 13.7993H23.2267H21.533H21.4V13.3898H23.359L23.3593 13.7993ZM21.909 14.5506H22.8515V25.4036H21.909V14.5506ZM4.63702 -5.24872H19.7994V11.2457H19.0395V-4.11203C19.0395 -4.31938 18.8716 -4.48767 18.6638 -4.48767H5.77371C5.56636 -4.48767 5.39807 -4.31938 5.39807 -4.11203V11.246H4.6374V-5.24872H4.63702ZM6.14935 11.2457V-3.73639H18.2882V11.246L6.14935 11.2457ZM-5.24872 11.997H29.6859V12.6385H28.7648H26.0549H23.735H21.0247H18.6537H15.9438H13.5731H10.8633H8.49222H5.78235H3.46202H0.752144H-1.6189H-4.32802H-5.24872V11.997ZM-1.99379 13.3898V13.7993H-2.12639H-3.81978H-3.95238V13.3898H-1.99379ZM-3.44414 14.5506H-2.50203V25.4036H-3.44414V14.5506ZM29.6859 27.2487H-5.24872V26.1549H-3.81941H-2.12602H1.26114H2.95453H6.29097H7.98436H11.3719H13.0657H16.4521H18.1458H21.5333H23.2271H26.5636H28.2569H29.6859V27.2487ZM27.8809 25.4036H26.9388V14.5506H27.8809V25.4036Z" fill="black"/>
</g>
<defs>
<clipPath id="clip0_335_30778">
<rect width="24" height="24" fill="white"/>
</clipPath>
</defs>
</svg>
