<svg width="24" height="24" viewBox="0 0 24 24" fill="none" xmlns="http://www.w3.org/2000/svg">
<g id="Bathroom">
<path id="Vector" d="M20.5032 11.0741V10.0181C20.5032 9.13377 20.1359 8.28561 19.4822 7.66026C18.8284 7.03491 17.9417 6.68359 17.0171 6.68359H16.6046C15.9212 6.68354 15.253 6.87691 14.6843 7.23935C14.149 7.58492 13.7246 8.06594 13.4584 8.62875H12.2963C12.2462 8.62875 12.1982 8.64778 12.1628 8.68165C12.1274 8.71552 12.1075 8.76147 12.1075 8.80937V9.85419C12.1075 9.9021 12.1274 9.94804 12.1628 9.98191C12.1982 10.0158 12.2462 10.0348 12.2963 10.0348H16.1601C16.21 10.0341 16.2575 10.0148 16.2928 9.98112C16.328 9.9474 16.3482 9.90188 16.3489 9.85419V8.81493C16.3493 8.79084 16.3447 8.76692 16.3355 8.74453C16.3262 8.72214 16.3124 8.70171 16.2948 8.68442C16.2773 8.66713 16.2564 8.65332 16.2333 8.64377C16.2101 8.63421 16.1853 8.62911 16.1601 8.62875H15.6401C15.926 8.44735 16.2615 8.35068 16.6046 8.35087H17.02C17.4823 8.35087 17.9257 8.52653 18.2525 8.8392C18.5794 9.15188 18.7631 9.57595 18.7631 10.0181V14.5198H3V18.2795C3 19.2715 3.89477 20.0996 5.05391 20.2469C5.14687 20.2608 5.24274 20.2635 5.34442 20.2691L4.94061 20.6554C4.91338 20.6812 4.89177 20.7119 4.87702 20.7458C4.86227 20.7796 4.85467 20.816 4.85467 20.8527C4.85467 20.8893 4.86227 20.9257 4.87702 20.9595C4.89177 20.9934 4.91338 21.0241 4.94061 21.0499C4.99504 21.1017 5.06867 21.1308 5.14542 21.1308C5.22217 21.1308 5.2958 21.1017 5.35023 21.0499L6.16075 20.2747H17.7521L18.5655 21.0499C18.62 21.1017 18.6936 21.1308 18.7703 21.1308C18.8471 21.1308 18.9207 21.1017 18.9751 21.0499C19.0024 21.0241 19.024 20.9934 19.0387 20.9595C19.0535 20.9257 19.0611 20.8893 19.0611 20.8527C19.0611 20.816 19.0535 20.7796 19.0387 20.7458C19.024 20.7119 19.0024 20.6812 18.9751 20.6554L18.5742 20.2747C18.6888 20.2731 18.8033 20.2657 18.917 20.2524C20.0791 20.1135 21 19.2799 21 18.2795V14.5142H20.5032V11.0741ZM15.7243 9.18451H15.7824V9.47906H12.6624V9.18451H15.7243ZM20.4306 18.2795C20.4306 18.9853 19.7537 19.5966 18.8589 19.7022C18.7685 19.7147 18.6772 19.7212 18.5859 19.7217H5.42576C5.32853 19.7201 5.2315 19.7127 5.13525 19.6995C4.24919 19.5855 3.58393 18.977 3.58393 18.2795V15.07H20.4306V18.2795ZM19.3412 14.5142V10.0181C19.3412 9.42856 19.0963 8.86312 18.6605 8.44622C18.2246 8.02932 17.6335 7.79511 17.0171 7.79511H16.6046C16.0442 7.79697 15.5039 7.99461 15.0852 8.35087C14.9789 8.43904 14.8816 8.53674 14.7947 8.64264H14.0975C14.2927 8.31881 14.5534 8.03541 14.8644 7.809C15.366 7.44589 15.9785 7.2506 16.6075 7.25325H17.0229C17.6518 7.25163 18.2639 7.4468 18.766 7.809C19.1268 8.06784 19.4196 8.40347 19.6213 8.78932C19.823 9.17517 19.928 9.60064 19.928 10.032V14.5142H19.3412Z" fill="black"/>
</g>
</svg>
