<svg width="24" height="24" viewBox="0 0 24 24" fill="none" xmlns="http://www.w3.org/2000/svg">
<g id="Bedroom">
<path id="Vector" d="M7.04116 18.536L6.02743 20.7846C5.96678 20.9195 5.83376 20.9991 5.69496 20.9995L3.26748 21C3.06582 21 2.90222 20.8364 2.90222 20.6347V18.5359H1.36525C1.1636 18.5359 1 18.3723 1 18.1707V13.2397C1 13.038 1.1636 12.8744 1.36525 12.8744H2.18801V12.1691C2.18801 11.6648 2.4549 11.214 2.88556 10.8939V3.83578C2.88556 3.33207 3.09181 2.8732 3.42429 2.54023L3.42666 2.53785C3.75947 2.20589 4.21768 2 4.72169 2H19.1981C19.7023 2 20.1615 2.20658 20.494 2.53872C20.8276 2.87102 21.0342 3.33056 21.0342 3.83579V10.8939C21.465 11.2143 21.7318 11.6654 21.7318 12.1691V12.8745H22.5542C22.7558 12.8745 22.9194 13.0381 22.9194 13.2397V18.1707C22.9194 18.3724 22.7558 18.536 22.5542 18.536H21.0169V20.6347C21.0169 20.8364 20.8533 21 20.6516 21H18.2241C18.0851 20.9991 17.9523 20.9195 17.8917 20.7846L16.8756 18.536L7.04116 18.536ZM5.4597 20.2693L6.24101 18.536H3.63273V20.2693H5.4597ZM5.76176 10.4099V10.0768C5.76176 9.30258 6.07825 8.59824 6.58826 8.08792L6.59063 8.08554C7.10065 7.57605 7.80481 7.25991 8.57865 7.25991H15.3415C16.1174 7.25991 16.8217 7.57641 17.3319 8.08641C17.8419 8.59643 18.1584 9.30094 18.1584 10.0768V10.41H19.4857C19.7737 10.41 20.0498 10.4528 20.3039 10.5304V3.83586C20.3039 3.53244 20.1793 3.25569 19.9791 3.05542C19.7798 2.85495 19.5027 2.73059 19.1984 2.73059H4.72206C4.41711 2.73059 4.14072 2.85427 3.94144 3.05389C3.74029 3.25469 3.61662 3.53111 3.61662 3.83572V10.5307C3.87059 10.4527 4.14699 10.4099 4.43494 10.4099H5.76228L5.76176 10.4099ZM6.49245 10.0768V10.4099H17.4274V10.0768C17.4274 9.50255 17.1926 8.98083 16.8149 8.60316C16.4373 8.2255 15.9154 7.99072 15.3413 7.99072H8.57849C8.00341 7.99072 7.48134 8.22482 7.10489 8.60164C6.72655 8.97963 6.49245 9.50168 6.49245 10.0768ZM2.91854 12.1689V12.8743H21.0012V12.1689C21.0012 11.9071 20.8468 11.6611 20.5975 11.4768C20.3176 11.2693 19.9244 11.1406 19.4855 11.1406H4.43458C3.99558 11.1406 3.60212 11.2695 3.32217 11.4768C3.07328 11.6609 2.91854 11.9071 2.91854 12.1689ZM17.6759 18.536L18.4592 20.2693H20.2862V18.536H17.6759ZM22.1889 13.605H1.7308V17.8054H22.1889V13.605Z" fill="black"/>
</g>
</svg>
