<svg width="24" height="24" viewBox="0 0 24 24" fill="none" xmlns="http://www.w3.org/2000/svg">
<g id="Garden">
<g id="Group 3824">
<path id="Vector" d="M3.225 20.5502C3.09 20.5502 3 20.6402 3 20.7752C3 20.9102 3.09 21.0002 3.225 21.0002H20.775C20.91 21.0002 21 20.9102 21 20.7752C21 20.6402 20.91 20.5502 20.775 20.5502H18.5475V18.5702C18.93 18.5702 19.65 18.5027 20.1675 18.0077C20.8425 17.3552 20.775 16.2302 20.775 16.1852C20.775 16.0727 20.685 15.9827 20.5725 15.9827C20.5275 15.9827 19.4025 15.8702 18.7275 16.5452C18.66 16.6127 18.615 16.6802 18.57 16.7477V16.1402C18.75 15.9602 19.2 15.4652 19.2 14.8352C19.2 14.0927 18.5025 13.5077 18.48 13.4852C18.39 13.4177 18.2775 13.4177 18.1875 13.4852C18.165 13.5077 17.49 14.0927 17.49 14.8577C17.49 15.4427 17.9175 15.9377 18.12 16.1177V16.7027C18.0975 16.6577 18.0525 16.6127 18.0075 16.5902C17.355 15.9152 16.23 15.9827 16.185 15.9827C16.0725 15.9827 15.9825 16.0727 15.9825 16.1852C15.9825 16.2302 15.87 17.3552 16.545 18.0302C17.04 18.5252 17.76 18.6152 18.1425 18.6377V20.5502H12.135V18.5702C12.5175 18.5702 13.2375 18.5027 13.755 18.0077C14.43 17.3552 14.3625 16.2302 14.3625 16.1852C14.3625 16.0727 14.2725 15.9827 14.16 15.9827C14.115 15.9827 12.99 15.8702 12.315 16.5452C12.2475 16.6127 12.2025 16.6802 12.1575 16.7477V16.1402C12.3375 15.9602 12.7875 15.4652 12.7875 14.8352C12.7875 14.0927 12.09 13.5077 12.0675 13.4852C11.9775 13.4177 11.865 13.4177 11.775 13.4852C11.7525 13.5077 11.0775 14.0927 11.0775 14.8577C11.0775 15.4427 11.505 15.9377 11.7075 16.1177V16.7027C11.685 16.6577 11.64 16.6127 11.595 16.5902C10.9425 15.9152 9.8175 15.9827 9.7725 15.9827C9.66 15.9827 9.57 16.0727 9.57 16.1852C9.57 16.2302 9.4575 17.3552 10.1325 18.0302C10.6275 18.5252 11.3475 18.6152 11.73 18.6377V20.5502H5.7225V18.5702C6.105 18.5702 6.825 18.5027 7.32 18.0077C7.995 17.3552 7.9275 16.2302 7.9275 16.1852C7.9275 16.0727 7.8375 15.9827 7.725 15.9827C7.68 15.9827 6.555 15.8702 5.88 16.5452C5.8125 16.6127 5.7675 16.6802 5.7225 16.7477V16.1402C5.9025 15.9602 6.3525 15.4652 6.3525 14.8352C6.3525 14.0927 5.655 13.5077 5.6325 13.4852C5.5425 13.4177 5.43 13.4177 5.34 13.4852C5.3175 13.5077 4.6425 14.0927 4.6425 14.8577C4.6425 15.4427 5.07 15.9377 5.2725 16.1177V16.7027C5.25 16.6577 5.205 16.6127 5.16 16.5902C4.5075 15.9152 3.3825 15.9827 3.3375 15.9827C3.225 15.9827 3.135 16.0727 3.135 16.1852C3.135 16.2302 3.0225 17.3552 3.6975 18.0302C4.1925 18.5252 4.9125 18.6152 5.295 18.6377V20.5502H3.225ZM19.0425 16.8602C19.425 16.5002 20.01 16.4327 20.325 16.4327C20.3025 16.7477 20.235 17.3327 19.8525 17.7152C19.47 18.0752 18.885 18.1427 18.57 18.1427C18.57 17.8277 18.66 17.2202 19.0425 16.8602ZM17.94 14.8352C17.94 14.4752 18.165 14.1377 18.3225 13.9577C18.48 14.1377 18.7275 14.4752 18.7275 14.8127C18.7275 15.1727 18.5025 15.5102 18.345 15.6902C18.165 15.5102 17.94 15.1952 17.94 14.8352ZM16.8375 17.6927C16.4775 17.3102 16.41 16.7252 16.41 16.4102C16.725 16.4327 17.31 16.5002 17.6925 16.8827C18.03 17.2427 18.12 17.7602 18.12 18.0977V18.1652C17.805 18.1427 17.1975 18.0752 16.8375 17.6927ZM12.6075 16.8602C12.99 16.5002 13.575 16.4327 13.89 16.4327C13.8675 16.7477 13.8 17.3327 13.4175 17.7152C13.035 18.0752 12.45 18.1427 12.135 18.1427C12.1575 17.8277 12.225 17.2202 12.6075 16.8602ZM11.505 14.8352C11.505 14.4752 11.73 14.1377 11.8875 13.9577C12.045 14.1377 12.2925 14.4527 12.2925 14.8127C12.2925 15.1727 12.0675 15.5102 11.91 15.6902C11.7525 15.5102 11.505 15.1952 11.505 14.8352ZM10.425 17.6927C10.065 17.3102 9.9975 16.7252 9.9975 16.4102C10.3125 16.4327 10.8975 16.5002 11.28 16.8827C11.6175 17.2427 11.685 17.7602 11.7075 18.0977V18.1877C11.37 18.1427 10.785 18.0752 10.425 17.6927ZM6.195 16.8602C6.5775 16.5002 7.1625 16.4327 7.4775 16.4327C7.455 16.7477 7.3875 17.3327 7.005 17.7152C6.6225 18.0752 6.0375 18.1427 5.7225 18.1427C5.745 17.8277 5.8125 17.2202 6.195 16.8602ZM5.0925 14.8352C5.0925 14.4752 5.3175 14.1377 5.475 13.9577C5.6325 14.1377 5.88 14.4527 5.88 14.8127C5.88 15.1727 5.655 15.5102 5.4975 15.6902C5.34 15.5102 5.0925 15.1952 5.0925 14.8352ZM3.99 17.6927C3.63 17.3102 3.5625 16.7252 3.5625 16.4102C3.8775 16.4327 4.4625 16.5002 4.845 16.8827C5.1825 17.2427 5.2725 17.7827 5.2725 18.0977V18.1652C4.9575 18.1427 4.35 18.0527 3.99 17.6927Z" fill="black"/>
<path id="Vector_2" d="M9.75 7.61248C9.75 8.75998 10.6725 9.68248 11.82 9.68248C12.9675 9.68248 13.89 8.75998 13.89 7.61248C13.89 6.46498 12.9675 5.54248 11.82 5.54248C10.6725 5.54248 9.75 6.48748 9.75 7.61248ZM11.82 5.99248C12.72 5.99248 13.44 6.71248 13.44 7.61248C13.44 8.51248 12.72 9.23248 11.82 9.23248C10.92 9.23248 10.2 8.51248 10.2 7.61248C10.2 6.71248 10.92 5.99248 11.82 5.99248Z" fill="black"/>
<path id="Vector_3" d="M12.0447 4.35V3.225C12.0447 3.09 11.9547 3 11.8197 3C11.6847 3 11.5947 3.09 11.5947 3.225V4.35C11.5947 4.485 11.6847 4.575 11.8197 4.575C11.9547 4.575 12.0447 4.485 12.0447 4.35Z" fill="black"/>
<path id="Vector_4" d="M14.0927 3.6074C13.9802 3.5399 13.8452 3.5849 13.7777 3.6974L13.2152 4.6874C13.1477 4.7999 13.1927 4.9349 13.3052 5.0024C13.3502 5.0249 13.3727 5.0249 13.4177 5.0249C13.4852 5.0249 13.5752 4.9799 13.6202 4.9124L14.1827 3.9224C14.2502 3.8099 14.2052 3.6749 14.0927 3.6074Z" fill="black"/>
<path id="Vector_5" d="M15.4652 5.18259L14.4977 5.76759C14.3852 5.83509 14.3627 5.97009 14.4077 6.08259C14.4527 6.15009 14.5202 6.19509 14.6102 6.19509C14.6552 6.19509 14.6777 6.19509 14.7227 6.17259L15.6902 5.58759C15.8027 5.52009 15.8252 5.38509 15.7802 5.27259C15.7127 5.16009 15.5777 5.11509 15.4652 5.18259Z" fill="black"/>
<path id="Vector_6" d="M16.4324 7.54482C16.4324 7.40982 16.3424 7.31982 16.2074 7.31982L15.0824 7.34232C14.9474 7.34232 14.8574 7.45482 14.8574 7.56732C14.8574 7.67982 14.9699 7.79232 15.0824 7.79232L16.2074 7.76982C16.3199 7.76982 16.4324 7.65732 16.4324 7.54482Z" fill="black"/>
<path id="Vector_7" d="M14.7679 8.98484C14.6554 8.91734 14.5204 8.96234 14.4529 9.07484C14.3854 9.18734 14.4304 9.32234 14.5429 9.38984L15.5329 9.92984C15.5779 9.95234 15.6004 9.95234 15.6454 9.95234C15.7354 9.95234 15.8029 9.90734 15.8479 9.83984C15.9154 9.72734 15.8704 9.59234 15.7579 9.52484L14.7679 8.98484Z" fill="black"/>
<path id="Vector_8" d="M13.3949 10.1999C13.2824 10.2674 13.2599 10.4024 13.3274 10.5149L13.9124 11.4824C13.9574 11.5499 14.0249 11.5949 14.1149 11.5949C14.1599 11.5949 14.2049 11.5949 14.2274 11.5724C14.3399 11.5049 14.3624 11.3699 14.2949 11.2574L13.7099 10.2899C13.6424 10.1549 13.5074 10.1324 13.3949 10.1999Z" fill="black"/>
<path id="Vector_9" d="M11.9102 10.6499C11.7752 10.6499 11.6852 10.7624 11.6852 10.8749L11.7302 11.9999C11.7302 12.1124 11.8427 12.2249 11.9552 12.2249C12.0902 12.2249 12.1802 12.1124 12.1802 11.9999L12.1352 10.8749C12.1352 10.7399 12.0452 10.6499 11.9102 10.6499Z" fill="black"/>
<path id="Vector_10" d="M10.0873 10.3801L9.5698 11.3701C9.5023 11.4826 9.5473 11.6176 9.6598 11.6851C9.6823 11.7076 9.7273 11.7076 9.7723 11.7076C9.8623 11.7076 9.9298 11.6626 9.9748 11.5951L10.4923 10.6051C10.5598 10.4926 10.5148 10.3576 10.4023 10.2901C10.2898 10.2451 10.1548 10.2901 10.0873 10.3801Z" fill="black"/>
<path id="Vector_11" d="M8.93975 9.18738L7.99475 9.79488C7.88225 9.86238 7.85975 9.99738 7.92725 10.1099C7.97225 10.1774 8.03975 10.2224 8.10725 10.2224C8.15225 10.2224 8.19725 10.1999 8.21975 10.1774L9.16475 9.56988C9.27725 9.50238 9.29975 9.36738 9.23225 9.25488C9.18725 9.14238 9.05225 9.11988 8.93975 9.18738Z" fill="black"/>
<path id="Vector_12" d="M7.2074 7.83741C7.2074 7.94991 7.3199 8.06241 7.4324 8.06241C7.4324 8.06241 7.4324 8.06241 7.4549 8.06241L8.5799 7.99491C8.7149 7.99491 8.8049 7.88241 8.7824 7.76991C8.7824 7.63491 8.6699 7.54491 8.5574 7.56741L7.4324 7.63491C7.2974 7.61241 7.2074 7.72491 7.2074 7.83741Z" fill="black"/>
<path id="Vector_13" d="M9.00715 5.94743L7.99465 5.42993C7.88215 5.38493 7.74715 5.40743 7.70215 5.51993C7.65715 5.63243 7.67965 5.76743 7.79215 5.81243L8.80465 6.32993C8.82715 6.35243 8.87215 6.35243 8.91715 6.35243C9.00715 6.35243 9.07465 6.30743 9.11965 6.23993C9.16465 6.12743 9.11965 5.99243 9.00715 5.94743Z" fill="black"/>
<path id="Vector_14" d="M9.57025 3.83252C9.50275 3.72002 9.36775 3.69752 9.25525 3.76502C9.14275 3.83252 9.12025 3.96752 9.18775 4.08002L9.81775 5.02502C9.86275 5.09252 9.93025 5.11502 9.99775 5.11502C10.0427 5.11502 10.0877 5.09252 10.1327 5.07002C10.2452 5.00252 10.2677 4.86752 10.2002 4.75502L9.57025 3.83252Z" fill="black"/>
</g>
</g>
</svg>
