<svg width="24" height="24" viewBox="0 0 24 24" fill="none" xmlns="http://www.w3.org/2000/svg">
<g id="Park">
<g id="Group 3821">
<g id="Vector">
<path d="M14.2623 11.5835C14.3797 11.5835 14.4748 11.4883 14.4748 11.371V10.0182C14.4748 9.90081 14.3797 9.80566 14.2623 9.80566C14.145 9.80566 14.0498 9.90081 14.0498 10.0182V11.371C14.0498 11.4883 14.145 11.5835 14.2623 11.5835Z" fill="black"/>
<path d="M14.2623 11.8335C14.5177 11.8335 14.7248 11.6264 14.7248 11.371V10.0182C14.7248 9.76274 14.5177 9.55566 14.2623 9.55566C14.0069 9.55566 13.7998 9.76274 13.7998 10.0182V11.371C13.7998 11.6264 14.0069 11.8335 14.2623 11.8335Z" stroke="black" stroke-opacity="0.25" stroke-width="0.5"/>
</g>
<g id="Vector_2">
<path d="M12.5 11.5835C12.6173 11.5835 12.7125 11.4883 12.7125 11.371V10.0182C12.7125 9.90081 12.6173 9.80566 12.5 9.80566C12.3826 9.80566 12.2875 9.90081 12.2875 10.0182V11.371C12.2875 11.4883 12.3826 11.5835 12.5 11.5835Z" fill="black"/>
<path d="M12.5 11.8335C12.7554 11.8335 12.9625 11.6264 12.9625 11.371V10.0182C12.9625 9.76274 12.7554 9.55566 12.5 9.55566C12.2446 9.55566 12.0375 9.76274 12.0375 10.0182V11.371C12.0375 11.6264 12.2446 11.8335 12.5 11.8335Z" stroke="black" stroke-opacity="0.25" stroke-width="0.5"/>
</g>
<g id="Vector_3">
<path d="M10.7373 11.5835C10.8546 11.5835 10.9498 11.4883 10.9498 11.371V10.0182C10.9498 9.90081 10.8546 9.80566 10.7373 9.80566C10.6199 9.80566 10.5248 9.90081 10.5248 10.0182V11.371C10.5248 11.4883 10.6199 11.5835 10.7373 11.5835Z" fill="black"/>
<path d="M10.7373 11.8335C10.9927 11.8335 11.1998 11.6264 11.1998 11.371V10.0182C11.1998 9.76274 10.9927 9.55566 10.7373 9.55566C10.4819 9.55566 10.2748 9.76274 10.2748 10.0182V11.371C10.2748 11.6264 10.4819 11.8335 10.7373 11.8335Z" stroke="black" stroke-opacity="0.25" stroke-width="0.5"/>
</g>
<g id="Vector_4">
<path d="M14.2623 14.0035C14.3797 14.0035 14.4748 13.9084 14.4748 13.791V12.4381C14.4748 12.3207 14.3797 12.2256 14.2623 12.2256C14.145 12.2256 14.0498 12.3207 14.0498 12.4381V13.791C14.0498 13.9084 14.145 14.0035 14.2623 14.0035Z" fill="black"/>
<path d="M14.2623 14.2535C14.5177 14.2535 14.7248 14.0464 14.7248 13.791V12.4381C14.7248 12.1827 14.5177 11.9756 14.2623 11.9756C14.0069 11.9756 13.7998 12.1827 13.7998 12.4381V13.791C13.7998 14.0464 14.0069 14.2535 14.2623 14.2535Z" stroke="black" stroke-opacity="0.25" stroke-width="0.5"/>
</g>
<g id="Vector_5">
<path d="M12.5 14.0035C12.6173 14.0035 12.7125 13.9084 12.7125 13.791V12.4381C12.7125 12.3207 12.6173 12.2256 12.5 12.2256C12.3826 12.2256 12.2875 12.3207 12.2875 12.4381V13.791C12.2875 13.9084 12.3826 14.0035 12.5 14.0035Z" fill="black"/>
<path d="M12.5 14.2535C12.7554 14.2535 12.9625 14.0464 12.9625 13.791V12.4381C12.9625 12.1827 12.7554 11.9756 12.5 11.9756C12.2446 11.9756 12.0375 12.1827 12.0375 12.4381V13.791C12.0375 14.0464 12.2446 14.2535 12.5 14.2535Z" stroke="black" stroke-opacity="0.25" stroke-width="0.5"/>
</g>
<g id="Vector_6">
<path d="M10.9498 13.791V12.4381C10.9498 12.3207 10.8546 12.2256 10.7373 12.2256C10.6199 12.2256 10.5248 12.3207 10.5248 12.4381V13.791C10.5248 13.9084 10.6199 14.0035 10.7373 14.0035C10.8546 14.0035 10.9498 13.9084 10.9498 13.791Z" fill="black"/>
<path d="M11.1998 13.791V12.4381C11.1998 12.1827 10.9927 11.9756 10.7373 11.9756C10.4819 11.9756 10.2748 12.1827 10.2748 12.4381V13.791C10.2748 14.0464 10.4819 14.2535 10.7373 14.2535C10.9927 14.2535 11.1998 14.0464 11.1998 13.791Z" stroke="black" stroke-opacity="0.25" stroke-width="0.5"/>
</g>
<g id="Vector_7">
<path d="M4.15027 20.5843C4.0381 20.6186 3.97502 20.7374 4.00936 20.8497C4.03738 20.9411 4.12153 21 4.21242 21C4.23307 21 4.25403 20.9969 4.27478 20.9906C6.12221 20.425 9.20127 20.0872 12.5112 20.0872C15.8053 20.0872 18.8762 20.4225 20.7257 20.9839C20.838 21.018 20.9567 20.9547 20.9908 20.8423C21.0248 20.73 20.9614 20.6113 20.8492 20.5772C19.6746 20.2207 18.0234 19.9537 16.1404 19.8028V8.3417H16.604C16.6663 8.3417 16.7255 8.31431 16.7658 8.26689C16.8062 8.21937 16.8237 8.1566 16.8137 8.09507L16.1762 4.17836C16.1595 4.07554 16.0706 4 15.9665 4H9.03349C8.92932 4 8.8405 4.07554 8.82379 4.17836L8.1863 8.09507C8.17623 8.1566 8.19377 8.21937 8.23413 8.26689C8.27449 8.31431 8.33363 8.3417 8.39599 8.3417H8.85959V19.8045C6.97354 19.9567 5.32223 20.2254 4.15027 20.5843ZM11.1682 19.6814V15.3598H13.8317V19.6807C13.3968 19.6688 12.9562 19.6622 12.5112 19.6622C12.0584 19.6622 11.6103 19.6691 11.1682 19.6814ZM9.21424 4.425H15.7857L16.3541 7.9167H8.64584L9.21424 4.425ZM9.28459 8.3417H15.7154V19.7716C15.2408 19.7386 14.7539 19.7125 14.2567 19.6944V15.1473C14.2567 15.0299 14.1616 14.9348 14.0442 14.9348H10.9557C10.8384 14.9348 10.7432 15.0299 10.7432 15.1473V19.6951C10.2459 19.7135 9.75906 19.7398 9.28459 19.7731V8.3417Z" fill="black"/>
<path d="M4.07707 20.3452L4.07708 20.3452C5.22489 19.9938 6.80984 19.7303 8.60959 19.5745V8.5917H8.39599C8.26022 8.5917 8.13153 8.53206 8.04376 8.42894L8.04358 8.42873C7.95597 8.32557 7.91766 8.18902 7.93954 8.0549C7.93955 8.05484 7.93956 8.05477 7.93957 8.05471L8.57703 4.13827L8.57704 4.1382L8.82379 4.17836C8.8405 4.07554 8.92932 4 9.03349 4H15.9665C16.0706 4 16.1595 4.07554 16.1762 4.17836L4.07707 20.3452ZM4.07707 20.3452C3.83277 20.42 3.69562 20.6787 3.7703 20.9228L3.77034 20.9229C3.83139 21.1221 4.01458 21.25 4.21242 21.25C4.2583 21.25 4.30382 21.2431 4.34771 21.2297L4.34796 21.2296C6.16068 20.6747 9.21109 20.3372 12.5112 20.3372C15.7954 20.3372 18.838 20.6721 20.6531 21.2232L20.6532 21.2232C20.8974 21.2972 21.1557 21.1596 21.23 20.915L21.2301 20.9148C21.3041 20.6705 21.1662 20.4123 20.9219 20.338L20.9218 20.338C19.7718 19.9889 18.1872 19.7272 16.3904 19.5727V8.5917L4.07707 20.3452ZM17.0604 8.05471L16.4229 4.13827L16.7658 8.26689C16.8062 8.21937 16.8237 8.1566 16.8137 8.09507L17.0604 8.0549L17.0604 8.05471ZM12.5112 19.4122C12.1435 19.4122 11.7789 19.4167 11.4182 19.425V15.6098H13.5817V19.4244C13.2283 19.4165 12.8712 19.4122 12.5112 19.4122ZM8.93983 7.6667L9.42683 4.675H15.5731L16.0601 7.6667H8.93983ZM9.53459 8.5917H15.4654V19.5044C15.1507 19.4845 14.831 19.4676 14.5067 19.454V15.1473C14.5067 14.8918 14.2997 14.6848 14.0442 14.6848H10.9557C10.7003 14.6848 10.4932 14.8918 10.4932 15.1473V19.4548C10.1689 19.4685 9.84917 19.4856 9.53459 19.5058V8.5917Z" stroke="black" stroke-opacity="0.25" stroke-width="0.5"/>
</g>
</g>
</g>
</svg>
