<svg width="24" height="24" viewBox="0 0 24 24" fill="none" xmlns="http://www.w3.org/2000/svg">
<g id="Pets">
<g id="Group">
<g id="Group_2">
<g id="Group_3">
<path id="Vector" d="M8.78643 18.6864C8.26495 18.3918 7.9618 17.8161 8.01411 17.2196C8.03903 16.9356 8.14192 16.6654 8.31168 16.4384C8.39508 16.3268 8.37227 16.1688 8.26074 16.0854C8.1492 16.002 7.99119 16.0248 7.90776 16.1363C7.68177 16.4386 7.5448 16.7979 7.51165 17.1756C7.44212 17.9685 7.84511 18.7339 8.53835 19.1255C8.57755 19.1476 8.62013 19.1581 8.66217 19.1581C8.75015 19.1581 8.8356 19.112 8.88197 19.0299C8.95049 18.9087 8.90773 18.7548 8.78643 18.6864Z" fill="black"/>
<path id="Vector_2" d="M13.7773 11.1229C13.8782 11.1467 13.9826 11.1587 14.0878 11.1587C15.1014 11.1587 16.1406 10.0609 16.559 8.54843C16.8504 7.49479 16.7798 6.45292 16.3702 5.76148C16.1419 5.37615 15.8204 5.12519 15.4407 5.03578C15.3399 5.01203 15.2354 5 15.1302 5C14.1166 5 13.0774 6.09778 12.659 7.61025C12.3676 8.6639 12.4382 9.70576 12.8479 10.3972C13.0762 10.7825 13.3976 11.0335 13.7773 11.1229ZM13.1452 7.7447C13.4984 6.46748 14.3518 5.50436 15.1302 5.50436C15.1966 5.50436 15.2621 5.51189 15.3251 5.52673C15.5717 5.58477 15.7773 5.75028 15.9363 6.0186C16.2723 6.58582 16.3247 7.50369 16.0729 8.41399C15.7196 9.69117 14.8662 10.6543 14.0878 10.6543C14.0215 10.6543 13.9559 10.6468 13.8929 10.6319C13.6464 10.5739 13.4408 10.4084 13.2818 10.1401C12.9457 9.57286 12.8934 8.655 13.1452 7.7447Z" fill="black"/>
<path id="Vector_3" d="M9.91229 11.1587C10.0174 11.1587 10.1219 11.1467 10.2228 11.1229C10.6025 11.0335 10.9239 10.7825 11.1523 10.3972C11.5619 9.70573 11.6325 8.6639 11.3411 7.61025C10.9227 6.09778 9.88347 5 8.86992 5C8.76476 5 8.66028 5.01203 8.55941 5.03581C8.17966 5.12519 7.85828 5.37615 7.62998 5.76151C7.2203 6.45296 7.14972 7.49479 7.44117 8.54847C7.85943 10.0609 8.8987 11.1587 9.91229 11.1587ZM8.06388 6.01856C8.22286 5.75024 8.42846 5.58477 8.67498 5.52673C8.73803 5.51189 8.80359 5.50436 8.86992 5.50436C9.64833 5.50436 10.5017 6.46751 10.855 7.7447C11.1068 8.655 11.0544 9.57286 10.7184 10.1401C10.5594 10.4084 10.3538 10.5739 10.1073 10.6319C10.0442 10.6468 9.97865 10.6543 9.91236 10.6543C9.13395 10.6543 8.28054 9.69121 7.9273 8.41399C7.67545 7.50365 7.72779 6.58578 8.06388 6.01856Z" fill="black"/>
<path id="Vector_4" d="M7.22439 13.7099C7.55518 13.4999 7.77375 13.1591 7.85643 12.7243C8.00039 11.9674 7.71975 11.012 7.10569 10.1683C6.38978 9.18481 5.35793 8.54932 4.47692 8.54932C4.17257 8.54932 3.90079 8.62389 3.66911 8.77095C3.33832 8.98094 3.11975 9.32174 3.03708 9.75654C2.89308 10.5134 3.17376 11.4689 3.78782 12.3125C4.50369 13.296 5.53554 13.9315 6.41658 13.9315C6.72089 13.9316 6.99271 13.857 7.22439 13.7099ZM4.19559 12.0157C3.66998 11.2935 3.41589 10.464 3.53254 9.85082C3.58935 9.55213 3.72625 9.33208 3.93941 9.19677C4.08899 9.10184 4.26984 9.05368 4.47692 9.05368C5.19084 9.05368 6.08342 9.6209 6.69791 10.4651C7.22353 11.1873 7.47762 12.0168 7.36096 12.63C7.30415 12.9287 7.16725 13.1487 6.95409 13.284C6.80451 13.379 6.6237 13.4272 6.41662 13.4272C5.70266 13.4272 4.81008 12.8599 4.19559 12.0157Z" fill="black"/>
<path id="Vector_5" d="M16.539 14.6292C15.8449 14.2255 15.2084 13.6708 14.6472 12.9806C14.0114 12.1986 13.0693 11.75 12.0625 11.75C11.0575 11.75 10.1165 12.1973 9.48079 12.9772C8.89313 13.6981 8.29312 14.205 7.64639 14.5269C6.49688 15.0989 5.79502 16.298 5.85832 17.5818C5.89799 18.3861 6.2429 19.1454 6.82954 19.72C7.416 20.2944 8.18231 20.6238 8.98738 20.6474C9.01984 20.6484 9.05222 20.6489 9.08447 20.6489C9.55914 20.6488 10.0164 20.548 10.4435 20.3491C10.9378 20.1189 11.4616 20.0022 12.0004 20.0022C12.5388 20.0022 13.0619 20.1188 13.5551 20.3487C13.9824 20.5478 14.4399 20.6488 14.9149 20.6488C15.0185 20.6488 15.1236 20.6439 15.2276 20.6341C16.7926 20.4865 18.0443 19.1902 18.1392 17.6185C18.2132 16.3918 17.6001 15.2464 16.539 14.6292ZM17.6357 17.5881C17.5557 18.9139 16.5001 20.0075 15.1802 20.1319C15.092 20.1402 15.0027 20.1444 14.9149 20.1444C14.5141 20.1444 14.1282 20.0593 13.7681 19.8915C13.2077 19.6303 12.613 19.4978 12.0004 19.4978C11.3875 19.4978 10.7921 19.6304 10.2306 19.8919C9.84612 20.0709 9.43287 20.1559 9.00226 20.1433C7.59123 20.1018 6.43156 18.9657 6.36211 17.557C6.30868 16.4733 6.90098 15.4612 7.87112 14.9784C8.58342 14.624 9.23787 14.0736 9.87178 13.2959C10.4113 12.634 11.2098 12.2544 12.0625 12.2544C12.9169 12.2544 13.7163 12.635 14.2559 13.2988C14.8557 14.0364 15.5385 14.6307 16.2854 15.0651C17.1808 15.586 17.6982 16.5527 17.6357 17.5881Z" fill="black"/>
<path id="Vector_6" d="M20.9628 9.75654C20.8801 9.32174 20.6615 8.98094 20.3307 8.77095C20.099 8.62385 19.8272 8.54932 19.5229 8.54932C18.6418 8.54932 17.61 9.18481 16.8941 10.1683C16.2801 11.0119 15.9994 11.9674 16.1434 12.7243C16.2261 13.1591 16.4446 13.4999 16.7754 13.7099C17.0071 13.857 17.2789 13.9315 17.5833 13.9315C18.4643 13.9315 19.4962 13.296 20.212 12.3125C20.8261 11.4689 21.1067 10.5134 20.9628 9.75654ZM19.8043 12.0157C19.1898 12.8599 18.2972 13.4272 17.5833 13.4272C17.3762 13.4272 17.1953 13.379 17.0458 13.2841C16.8326 13.1488 16.6957 12.9287 16.6389 12.63C16.5223 12.0168 16.7763 11.1873 17.3019 10.4651C17.9164 9.62087 18.809 9.05368 19.5229 9.05368C19.73 9.05368 19.9109 9.10181 20.0604 9.19677C20.2736 9.33208 20.4105 9.55217 20.4673 9.85082C20.5839 10.464 20.3299 11.2935 19.8043 12.0157Z" fill="black"/>
</g>
</g>
</g>
</g>
</svg>
