<svg width="24" height="24" viewBox="0 0 24 24" fill="none" xmlns="http://www.w3.org/2000/svg">
<g id="Pool">
<g id="Group 3823">
<g id="Vector">
<path d="M20.7219 16.5257C20.5571 16.6873 20.3354 16.7779 20.1046 16.7779C19.8738 16.7779 19.6521 16.6873 19.4873 16.5257C19.3757 16.4141 19.2432 16.3255 19.0973 16.2651C18.9515 16.2046 18.7952 16.1735 18.6373 16.1735C18.4795 16.1735 18.3231 16.2046 18.1773 16.2651C18.0315 16.3255 17.899 16.4141 17.7874 16.5257C17.6225 16.6873 17.4009 16.7779 17.17 16.7779C16.9392 16.7779 16.7176 16.6873 16.5527 16.5257C16.327 16.3001 16.0208 16.1733 15.7017 16.1733C15.3825 16.1733 15.0764 16.3001 14.8506 16.5257C14.6845 16.6841 14.4639 16.7725 14.2344 16.7725C14.0049 16.7725 13.7842 16.6841 13.6181 16.5257C13.3924 16.3001 13.0863 16.1733 12.7671 16.1733C12.4479 16.1733 12.1418 16.3001 11.9161 16.5257C11.7513 16.6867 11.5301 16.7768 11.2998 16.7768C11.0695 16.7768 10.8483 16.6867 10.6836 16.5257C10.4578 16.3001 10.1517 16.1733 9.83254 16.1733C9.51336 16.1733 9.20724 16.3001 8.9815 16.5257C8.81664 16.6873 8.595 16.7779 8.36416 16.7779C8.13332 16.7779 7.91168 16.6873 7.74682 16.5257C7.63523 16.4141 7.50273 16.3255 7.3569 16.2651C7.21106 16.2046 7.05474 16.1735 6.89688 16.1735C6.73902 16.1735 6.5827 16.2046 6.43686 16.2651C6.29103 16.3255 6.15853 16.4141 6.04694 16.5257C5.88208 16.6873 5.66044 16.7779 5.4296 16.7779C5.19876 16.7779 4.97712 16.6873 4.81226 16.5257C4.58652 16.3001 4.2804 16.1733 3.96122 16.1733C3.64204 16.1733 3.33592 16.3001 3.11018 16.5257C3.08097 16.5571 3.06507 16.5986 3.06582 16.6414C3.06658 16.6842 3.08393 16.7251 3.11423 16.7554C3.14452 16.7857 3.1854 16.8031 3.22824 16.8038C3.27108 16.8046 3.31254 16.7887 3.34388 16.7595C3.50874 16.5979 3.73038 16.5074 3.96122 16.5074C4.19206 16.5074 4.4137 16.5979 4.57856 16.7595C4.8043 16.9851 5.11042 17.1119 5.4296 17.1119C5.74878 17.1119 6.0549 16.9851 6.28065 16.7595C6.4454 16.5985 6.66657 16.5084 6.89688 16.5084C7.12719 16.5084 7.34836 16.5985 7.51312 16.7595C7.73886 16.9851 8.04498 17.1119 8.36416 17.1119C8.68334 17.1119 8.98946 16.9851 9.2152 16.7595C9.38006 16.5979 9.6017 16.5074 9.83254 16.5074C10.0634 16.5074 10.285 16.5979 10.4499 16.7595C10.5615 16.8711 10.694 16.9597 10.8398 17.0201C10.9856 17.0806 11.142 17.1117 11.2998 17.1117C11.4577 17.1117 11.614 17.0806 11.7598 17.0201C11.9057 16.9597 12.0382 16.8711 12.1498 16.7595C12.3146 16.5979 12.5363 16.5074 12.7671 16.5074C12.9979 16.5074 13.2196 16.5979 13.3844 16.7595C13.6102 16.9851 13.9163 17.1119 14.2355 17.1119C14.5547 17.1119 14.8608 16.9851 15.0865 16.7595C15.2513 16.5985 15.4724 16.5084 15.7028 16.5084C15.9331 16.5084 16.1542 16.5985 16.319 16.7595C16.5447 16.9851 16.8509 17.1119 17.17 17.1119C17.4892 17.1119 17.7953 16.9851 18.0211 16.7595C18.1858 16.5985 18.407 16.5084 18.6373 16.5084C18.8676 16.5084 19.0888 16.5985 19.2536 16.7595C19.4793 16.9851 19.7854 17.1119 20.1046 17.1119C20.4238 17.1119 20.7299 16.9851 20.9556 16.7595C20.9848 16.7281 21.0007 16.6866 21 16.6438C20.9992 16.601 20.9819 16.5601 20.9516 16.5298C20.9213 16.4995 20.8804 16.4822 20.8376 16.4814C20.7947 16.4806 20.7533 16.4965 20.7219 16.5257Z" fill="black"/>
<path d="M20.5469 16.3472L20.5514 16.3428L20.5515 16.3428C20.6302 16.2695 20.7344 16.2295 20.842 16.2314C20.9496 16.2333 21.0523 16.2769 21.1284 16.353C21.2045 16.4291 21.2481 16.5318 21.25 16.6394C21.2519 16.747 21.2119 16.8511 21.1385 16.9299L21.1325 16.9364L21.1324 16.9363C20.8598 17.2088 20.4901 17.3619 20.1046 17.3619C19.7197 17.3619 19.3505 17.2092 19.078 16.9375C18.9601 16.8227 18.802 16.7584 18.6373 16.7584C18.4728 16.7584 18.3147 16.8226 18.1968 16.9373C17.9243 17.2092 17.555 17.3619 17.17 17.3619C16.7851 17.3619 16.4159 17.2092 16.1434 16.9374C16.0254 16.8227 15.8674 16.7584 15.7028 16.7584C15.5382 16.7584 15.3802 16.8226 15.2622 16.9373C14.9897 17.2092 14.6205 17.3619 14.2355 17.3619C13.8505 17.3619 13.4812 17.2092 13.2087 16.9373C13.0906 16.8219 12.9321 16.7574 12.7671 16.7574C12.6021 16.7574 12.4437 16.8219 12.3257 16.9371C12.1911 17.0716 12.0313 17.1782 11.8555 17.2511C11.6794 17.3241 11.4905 17.3617 11.2998 17.3617C11.1091 17.3617 10.9203 17.3241 10.7441 17.2511C10.5684 17.1783 10.4087 17.0716 10.2741 16.9372C10.156 16.8219 9.99757 16.7574 9.83254 16.7574C9.66754 16.7574 9.50911 16.8219 9.39108 16.9371C9.11854 17.2091 8.74922 17.3619 8.36416 17.3619C7.97923 17.3619 7.61004 17.2092 7.33752 16.9374C7.21957 16.8227 7.06148 16.7584 6.89688 16.7584C6.73228 16.7584 6.57419 16.8227 6.45624 16.9374C6.18372 17.2092 5.81453 17.3619 5.4296 17.3619C5.04459 17.3619 4.67533 17.2091 4.4028 16.9372C4.28475 16.8219 4.12627 16.7574 3.96122 16.7574C3.79582 16.7574 3.63701 16.8222 3.51888 16.938L3.51437 16.9424L3.51431 16.9424C3.43557 17.0157 3.33143 17.0557 3.22383 17.0538C3.11622 17.0519 3.01355 17.0083 2.93745 16.9322C2.86135 16.8561 2.81776 16.7534 2.81586 16.6458C2.81396 16.5382 2.85391 16.4341 2.92727 16.3553L2.93333 16.3488L2.93344 16.3489C3.20606 16.0764 3.57575 15.9233 3.96122 15.9233C4.34623 15.9233 4.71549 16.0761 4.98802 16.348C5.10607 16.4633 5.26455 16.5279 5.4296 16.5279C5.59468 16.5279 5.75319 16.4632 5.87125 16.3479C5.87148 16.3477 5.87171 16.3474 5.87194 16.3472L6.04694 16.5257L20.5469 16.3472ZM20.5469 16.3472C20.4288 16.463 20.27 16.5279 20.1046 16.5279M20.5469 16.3472L20.1046 16.5279M20.1046 16.5279C19.9396 16.5279 19.7811 16.4633 19.663 16.348M20.1046 16.5279L19.663 16.348M19.663 16.348C19.5284 16.2136 19.3688 16.1069 19.193 16.0341C19.0169 15.9611 18.828 15.9235 18.6373 15.9235C18.4466 15.9235 18.2578 15.9611 18.0816 16.0341C17.9058 16.107 17.7461 16.2137 17.6115 16.3481C17.4934 16.4633 17.335 16.5279 17.17 16.5279C17.005 16.5279 16.8465 16.4633 16.7285 16.348C16.4559 16.0761 16.0867 15.9233 15.7017 15.9233C15.3173 15.9233 14.9486 16.0755 14.6762 16.3466C14.5569 16.4595 14.3988 16.5225 14.2344 16.5225C14.07 16.5225 13.9119 16.4595 13.7925 16.3466C13.5201 16.0755 13.1515 15.9233 12.7671 15.9233C12.3821 15.9233 12.0129 16.076 11.7403 16.3479C11.6224 16.4626 11.4644 16.5268 11.2998 16.5268C11.1352 16.5268 10.9771 16.4625 10.8592 16.3478C10.5867 16.076 10.2175 15.9233 9.83254 15.9233C9.44748 15.9233 9.07816 16.0761 8.80562 16.3481C8.68759 16.4633 8.52915 16.5279 8.36416 16.5279C8.19913 16.5279 8.04066 16.4633 7.92263 16.348L19.663 16.348Z" stroke="black" stroke-opacity="0.2" stroke-width="0.5"/>
</g>
<g id="Vector_2">
<path d="M20.7219 16.5257C20.5571 16.6873 20.3354 16.7779 20.1046 16.7779C19.8738 16.7779 19.6521 16.6873 19.4873 16.5257C19.3757 16.4141 19.2432 16.3255 19.0973 16.2651C18.9515 16.2046 18.7952 16.1735 18.6373 16.1735C18.4795 16.1735 18.3231 16.2046 18.1773 16.2651C18.0315 16.3255 17.899 16.4141 17.7874 16.5257C17.6225 16.6873 17.4009 16.7779 17.17 16.7779C16.9392 16.7779 16.7176 16.6873 16.5527 16.5257C16.327 16.3001 16.0208 16.1733 15.7017 16.1733C15.3825 16.1733 15.0764 16.3001 14.8506 16.5257C14.6845 16.6841 14.4639 16.7725 14.2344 16.7725C14.0049 16.7725 13.7842 16.6841 13.6181 16.5257C13.3924 16.3001 13.0863 16.1733 12.7671 16.1733C12.4479 16.1733 12.1418 16.3001 11.9161 16.5257C11.7513 16.6867 11.5301 16.7768 11.2998 16.7768C11.0695 16.7768 10.8483 16.6867 10.6836 16.5257C10.4578 16.3001 10.1517 16.1733 9.83254 16.1733C9.51336 16.1733 9.20724 16.3001 8.9815 16.5257C8.81664 16.6873 8.595 16.7779 8.36416 16.7779C8.13332 16.7779 7.91168 16.6873 7.74682 16.5257C7.63523 16.4141 7.50273 16.3255 7.3569 16.2651C7.21106 16.2046 7.05474 16.1735 6.89688 16.1735C6.73902 16.1735 6.5827 16.2046 6.43686 16.2651C6.29103 16.3255 6.15853 16.4141 6.04694 16.5257C5.88208 16.6873 5.66044 16.7779 5.4296 16.7779C5.19876 16.7779 4.97712 16.6873 4.81226 16.5257C4.58652 16.3001 4.2804 16.1733 3.96122 16.1733C3.64204 16.1733 3.33592 16.3001 3.11018 16.5257C3.08097 16.5571 3.06507 16.5986 3.06582 16.6414C3.06658 16.6842 3.08393 16.7251 3.11423 16.7554C3.14452 16.7857 3.1854 16.8031 3.22824 16.8038C3.27108 16.8046 3.31254 16.7887 3.34388 16.7595C3.50874 16.5979 3.73038 16.5074 3.96122 16.5074C4.19206 16.5074 4.4137 16.5979 4.57856 16.7595C4.8043 16.9851 5.11042 17.1119 5.4296 17.1119C5.74878 17.1119 6.0549 16.9851 6.28065 16.7595C6.4454 16.5985 6.66657 16.5084 6.89688 16.5084C7.12719 16.5084 7.34836 16.5985 7.51312 16.7595C7.73886 16.9851 8.04498 17.1119 8.36416 17.1119C8.68334 17.1119 8.98946 16.9851 9.2152 16.7595C9.38006 16.5979 9.6017 16.5074 9.83254 16.5074C10.0634 16.5074 10.285 16.5979 10.4499 16.7595C10.5615 16.8711 10.694 16.9597 10.8398 17.0201C10.9856 17.0806 11.142 17.1117 11.2998 17.1117C11.4577 17.1117 11.614 17.0806 11.7598 17.0201C11.9057 16.9597 12.0382 16.8711 12.1498 16.7595C12.3146 16.5979 12.5363 16.5074 12.7671 16.5074C12.9979 16.5074 13.2196 16.5979 13.3844 16.7595C13.6102 16.9851 13.9163 17.1119 14.2355 17.1119C14.5547 17.1119 14.8608 16.9851 15.0865 16.7595C15.2513 16.5985 15.4724 16.5084 15.7028 16.5084C15.9331 16.5084 16.1542 16.5985 16.319 16.7595C16.5447 16.9851 16.8509 17.1119 17.17 17.1119C17.4892 17.1119 17.7953 16.9851 18.0211 16.7595C18.1858 16.5985 18.407 16.5084 18.6373 16.5084C18.8676 16.5084 19.0888 16.5985 19.2536 16.7595C19.4793 16.9851 19.7854 17.1119 20.1046 17.1119C20.4238 17.1119 20.7299 16.9851 20.9556 16.7595C20.9848 16.7281 21.0007 16.6866 21 16.6438C20.9992 16.601 20.9819 16.5601 20.9516 16.5298C20.9213 16.4995 20.8804 16.4822 20.8376 16.4814C20.7947 16.4806 20.7533 16.4965 20.7219 16.5257Z" fill="black"/>
<path d="M20.5469 16.3472L20.5514 16.3428L20.5515 16.3428C20.6302 16.2695 20.7344 16.2295 20.842 16.2314C20.9496 16.2333 21.0523 16.2769 21.1284 16.353C21.2045 16.4291 21.2481 16.5318 21.25 16.6394C21.2519 16.747 21.2119 16.8511 21.1385 16.9299L21.1325 16.9364L21.1324 16.9363C20.8598 17.2088 20.4901 17.3619 20.1046 17.3619C19.7197 17.3619 19.3505 17.2092 19.078 16.9375C18.9601 16.8227 18.802 16.7584 18.6373 16.7584C18.4728 16.7584 18.3147 16.8226 18.1968 16.9373C17.9243 17.2092 17.555 17.3619 17.17 17.3619C16.7851 17.3619 16.4159 17.2092 16.1434 16.9374C16.0254 16.8227 15.8674 16.7584 15.7028 16.7584C15.5382 16.7584 15.3802 16.8226 15.2622 16.9373C14.9897 17.2092 14.6205 17.3619 14.2355 17.3619C13.8505 17.3619 13.4812 17.2092 13.2087 16.9373C13.0906 16.8219 12.9321 16.7574 12.7671 16.7574C12.6021 16.7574 12.4437 16.8219 12.3257 16.9371C12.1911 17.0716 12.0313 17.1782 11.8555 17.2511C11.6794 17.3241 11.4905 17.3617 11.2998 17.3617C11.1091 17.3617 10.9203 17.3241 10.7441 17.2511C10.5684 17.1783 10.4087 17.0716 10.2741 16.9372C10.156 16.8219 9.99757 16.7574 9.83254 16.7574C9.66754 16.7574 9.50911 16.8219 9.39108 16.9371C9.11854 17.2091 8.74922 17.3619 8.36416 17.3619C7.97923 17.3619 7.61004 17.2092 7.33752 16.9374C7.21957 16.8227 7.06148 16.7584 6.89688 16.7584C6.73228 16.7584 6.57419 16.8227 6.45624 16.9374C6.18372 17.2092 5.81453 17.3619 5.4296 17.3619C5.04459 17.3619 4.67533 17.2091 4.4028 16.9372C4.28475 16.8219 4.12627 16.7574 3.96122 16.7574C3.79582 16.7574 3.63701 16.8222 3.51888 16.938L3.51437 16.9424L3.51431 16.9424C3.43557 17.0157 3.33143 17.0557 3.22383 17.0538C3.11622 17.0519 3.01355 17.0083 2.93745 16.9322C2.86135 16.8561 2.81776 16.7534 2.81586 16.6458C2.81396 16.5382 2.85391 16.4341 2.92727 16.3553L2.93333 16.3488L2.93344 16.3489C3.20606 16.0764 3.57575 15.9233 3.96122 15.9233C4.34623 15.9233 4.71549 16.0761 4.98802 16.348C5.10607 16.4633 5.26455 16.5279 5.4296 16.5279C5.59468 16.5279 5.75319 16.4632 5.87125 16.3479C5.87148 16.3477 5.87171 16.3474 5.87194 16.3472L6.04694 16.5257L20.5469 16.3472ZM20.5469 16.3472C20.4288 16.463 20.27 16.5279 20.1046 16.5279M20.5469 16.3472L20.1046 16.5279M20.1046 16.5279C19.9396 16.5279 19.7811 16.4633 19.663 16.348M20.1046 16.5279L19.663 16.348M19.663 16.348C19.5284 16.2136 19.3688 16.1069 19.193 16.0341C19.0169 15.9611 18.828 15.9235 18.6373 15.9235C18.4466 15.9235 18.2578 15.9611 18.0816 16.0341C17.9058 16.107 17.7461 16.2137 17.6115 16.3481C17.4934 16.4633 17.335 16.5279 17.17 16.5279C17.005 16.5279 16.8465 16.4633 16.7285 16.348C16.4559 16.0761 16.0867 15.9233 15.7017 15.9233C15.3173 15.9233 14.9486 16.0755 14.6762 16.3466C14.5569 16.4595 14.3988 16.5225 14.2344 16.5225C14.07 16.5225 13.9119 16.4595 13.7925 16.3466C13.5201 16.0755 13.1515 15.9233 12.7671 15.9233C12.3821 15.9233 12.0129 16.076 11.7403 16.3479C11.6224 16.4626 11.4644 16.5268 11.2998 16.5268C11.1352 16.5268 10.9771 16.4625 10.8592 16.3478C10.5867 16.076 10.2175 15.9233 9.83254 15.9233C9.44748 15.9233 9.07816 16.0761 8.80562 16.3481C8.68759 16.4633 8.52915 16.5279 8.36416 16.5279C8.19913 16.5279 8.04066 16.4633 7.92263 16.348L19.663 16.348Z" stroke="black" stroke-opacity="0.2" stroke-width="0.5"/>
</g>
<g id="Vector_3">
<path d="M19.234 18.576L19.2141 18.5936C19.0474 18.7516 18.8265 18.8397 18.5968 18.8397C18.3671 18.8397 18.1461 18.7516 17.9794 18.5936C17.8679 18.482 17.7354 18.3934 17.5895 18.3329C17.4437 18.2725 17.2874 18.2414 17.1295 18.2414C16.9716 18.2414 16.8153 18.2725 16.6695 18.3329C16.5237 18.3934 16.3912 18.482 16.2796 18.5936C16.1131 18.7521 15.8921 18.8405 15.6622 18.8405C15.4324 18.8405 15.2113 18.7521 15.0449 18.5936C14.8191 18.368 14.513 18.2412 14.1938 18.2412C13.8747 18.2412 13.5685 18.368 13.3428 18.5936C13.178 18.7545 12.9569 18.8446 12.7266 18.8446C12.4963 18.8446 12.2751 18.7545 12.1103 18.5936C11.8846 18.368 11.5785 18.2412 11.2593 18.2412C10.9401 18.2412 10.634 18.368 10.4082 18.5936C10.2415 18.7516 10.0206 18.8397 9.79091 18.8397C9.56121 18.8397 9.34027 18.7516 9.17357 18.5936C9.06198 18.482 8.92948 18.3934 8.78364 18.3329C8.63781 18.2725 8.48149 18.2414 8.32363 18.2414C8.16576 18.2414 8.00945 18.2725 7.86361 18.3329C7.71777 18.3934 7.58528 18.482 7.47369 18.5936C7.30724 18.7521 7.0862 18.8405 6.85635 18.8405C6.6265 18.8405 6.40546 18.7521 6.23901 18.5936C6.01327 18.368 5.70715 18.2412 5.38797 18.2412C5.06878 18.2412 4.76267 18.368 4.53692 18.5936C4.37217 18.7545 4.151 18.8446 3.92069 18.8446C3.69038 18.8446 3.46921 18.7545 3.30445 18.5936C3.27311 18.5644 3.23165 18.5485 3.18881 18.5493C3.14597 18.55 3.1051 18.5674 3.0748 18.5977C3.0445 18.628 3.02715 18.6688 3.02639 18.7117C3.02564 18.7545 3.04154 18.796 3.07075 18.8273C3.29649 19.053 3.60261 19.1797 3.92179 19.1797C4.24097 19.1797 4.54709 19.053 4.77283 18.8273C4.93759 18.6664 5.15876 18.5763 5.38907 18.5763C5.61938 18.5763 5.84055 18.6664 6.00531 18.8273C6.23105 19.053 6.53717 19.1797 6.85635 19.1797C7.17553 19.1797 7.48165 19.053 7.70739 18.8273C7.87215 18.6664 8.09332 18.5763 8.32363 18.5763C8.55394 18.5763 8.77511 18.6664 8.93986 18.8273C9.16561 19.053 9.47172 19.1797 9.79091 19.1797C10.1101 19.1797 10.4162 19.053 10.6419 18.8273C10.8068 18.6657 11.0284 18.5752 11.2593 18.5752C11.4901 18.5752 11.7118 18.6657 11.8766 18.8273C11.9881 18.9392 12.1205 19.0281 12.2664 19.0887C12.4122 19.1493 12.5686 19.1805 12.7266 19.1805C12.8845 19.1805 13.0409 19.1493 13.1868 19.0887C13.3326 19.0281 13.4651 18.9392 13.5765 18.8273C13.7414 18.6657 13.963 18.5752 14.1938 18.5752C14.4247 18.5752 14.6463 18.6657 14.8112 18.8273C15.0369 19.053 15.343 19.1797 15.6622 19.1797C15.9814 19.1797 16.2875 19.053 16.5133 18.8273C16.678 18.6664 16.8992 18.5763 17.1295 18.5763C17.3598 18.5763 17.581 18.6664 17.7457 18.8273C17.9711 19.0503 18.2753 19.1753 18.5924 19.1753C18.9094 19.1753 19.2136 19.0503 19.439 18.8273L19.4589 18.8097C19.6237 18.6481 19.8453 18.5576 20.0762 18.5576C20.307 18.5576 20.5287 18.6481 20.6935 18.8097C20.7087 18.8253 20.7269 18.8377 20.747 18.8461C20.767 18.8546 20.7886 18.859 20.8104 18.859C20.8322 18.859 20.8537 18.8546 20.8738 18.8461C20.8939 18.8377 20.912 18.8253 20.9272 18.8097C20.9582 18.7787 20.9756 18.7366 20.9756 18.6928C20.9756 18.649 20.9582 18.607 20.9272 18.576C20.7021 18.3525 20.3978 18.2271 20.0806 18.2271C19.7634 18.2271 19.4591 18.3525 19.234 18.576Z" fill="black"/>
<path d="M19.0479 18.4067L19.048 18.4068L19.063 18.3935C19.3344 18.1267 19.6998 17.9771 20.0806 17.9771C20.4638 17.9771 20.8315 18.1286 21.1034 18.3986L21.1041 18.3993C21.1819 18.4772 21.2256 18.5828 21.2256 18.6928C21.2256 18.8029 21.1819 18.9085 21.1041 18.9863C21.0661 19.0248 21.0208 19.0555 20.971 19.0765C20.9201 19.0979 20.8655 19.109 20.8104 19.109C20.7552 19.109 20.7006 19.0979 20.6498 19.0765C20.6001 19.0555 20.5551 19.0251 20.5171 18.9869C20.3992 18.8719 20.2409 18.8076 20.0762 18.8076C19.9108 18.8076 19.752 18.8724 19.6339 18.9882L19.6251 18.9968L19.6249 18.9965L19.6099 19.0099C19.3382 19.2761 18.9729 19.4253 18.5924 19.4253C18.2098 19.4253 17.8426 19.2745 17.5705 19.0056C17.4525 18.8907 17.2943 18.8263 17.1295 18.8263C16.965 18.8263 16.8069 18.8905 16.689 19.0052C16.4165 19.277 16.0472 19.4297 15.6622 19.4297C15.2772 19.4297 14.908 19.277 14.6354 19.0051C14.5174 18.8898 14.3589 18.8252 14.1938 18.8252C14.0289 18.8252 13.8706 18.8897 13.7526 19.0048C13.6181 19.1395 13.4585 19.2465 13.2827 19.3195C13.1064 19.3928 12.9174 19.4305 12.7266 19.4305C12.5357 19.4305 12.3467 19.3928 12.1705 19.3195C11.9947 19.2465 11.8351 19.1396 11.7007 19.0049M19.0479 18.4067L11.8766 18.8273M19.0479 18.4067L19.0421 18.4122C18.9219 18.5262 18.7625 18.5897 18.5968 18.5897C18.4321 18.5897 18.2736 18.5269 18.1536 18.4142C18.0193 18.2806 17.8602 18.1745 17.6852 18.102C17.5091 18.029 17.3202 17.9914 17.1295 17.9914C16.9388 17.9914 16.75 18.029 16.5738 18.102C16.3987 18.1745 16.2395 18.2807 16.1052 18.4144C15.9855 18.5275 15.827 18.5905 15.6622 18.5905C15.4974 18.5905 15.3389 18.5275 15.2192 18.4144C14.9468 18.1434 14.5782 17.9912 14.1938 17.9912C13.8089 17.9912 13.4396 18.1439 13.1671 18.4158C13.0491 18.5305 12.8911 18.5946 12.7266 18.5946C12.562 18.5946 12.4039 18.5304 12.2859 18.4156C12.0134 18.1439 11.6442 17.9912 11.2593 17.9912C10.8751 17.9912 10.5065 18.1433 10.2342 18.4142C10.1141 18.5269 9.95564 18.5897 9.79091 18.5897C9.62619 18.5897 9.46771 18.5269 9.3477 18.4142C9.21346 18.2806 9.05436 18.1745 8.87935 18.102C8.70317 18.029 8.51434 17.9914 8.32363 17.9914C8.13292 17.9914 7.94408 18.029 7.7679 18.102C7.5928 18.1745 7.43361 18.2807 7.29932 18.4144C7.17959 18.5275 7.02111 18.5905 6.85635 18.5905C6.69157 18.5905 6.53307 18.5275 6.41334 18.4144C6.14095 18.1434 5.7723 17.9912 5.38797 17.9912C5.00304 17.9912 4.63385 18.1439 4.36133 18.4157C4.24338 18.5304 4.08529 18.5946 3.92069 18.5946C3.75567 18.5946 3.59719 18.5301 3.47914 18.4148L3.47919 18.4147L3.47488 18.4107C3.39615 18.3373 3.29201 18.2974 3.1844 18.2993C3.07679 18.3012 2.97412 18.3448 2.89802 18.4209C2.82192 18.497 2.77833 18.5997 2.77643 18.7073C2.77453 18.8149 2.81448 18.919 2.88784 18.9978L2.88773 18.9979L2.89401 19.0041C3.16663 19.2766 3.53632 19.4297 3.92179 19.4297C4.30672 19.4297 4.67591 19.2771 4.94843 19.0053M19.0479 18.4067L4.77283 18.8273M11.7007 19.0049C11.7003 19.0045 11.6999 19.0041 11.6995 19.0037L11.8766 18.8273M11.7007 19.0049C11.701 19.0052 11.7013 19.0055 11.7016 19.0059L11.8766 18.8273M11.7007 19.0049C11.5826 18.8897 11.4242 18.8252 11.2593 18.8252C11.0943 18.8252 10.9359 18.8898 10.8178 19.005M11.8766 18.8273C11.7118 18.6657 11.4901 18.5752 11.2593 18.5752C11.0284 18.5752 10.8068 18.6657 10.6419 18.8273M10.8178 19.005C10.8181 19.0047 10.8184 19.0044 10.8187 19.0041L10.6419 18.8273M10.8178 19.005C10.5453 19.277 10.176 19.4297 9.79091 19.4297C9.40598 19.4297 9.03679 19.2771 8.76427 19.0053M10.8178 19.005C10.8175 19.0053 10.8172 19.0056 10.8169 19.0059L10.6419 18.8273M10.6419 18.8273L8.76427 19.0053M8.76427 19.0053C8.76457 19.0056 8.76487 19.0059 8.76518 19.0062L8.93986 18.8273M8.76427 19.0053C8.76389 19.0049 8.76351 19.0045 8.76312 19.0041L8.93986 18.8273M8.76427 19.0053C8.64632 18.8905 8.48823 18.8263 8.32363 18.8263C8.15909 18.8263 8.00105 18.8905 7.88311 19.0052M8.76427 19.0053L8.93986 18.8273M8.93986 18.8273C8.77511 18.6664 8.55394 18.5763 8.32363 18.5763C8.09332 18.5763 7.87215 18.6664 7.70739 18.8273M7.88311 19.0052C7.88345 19.0048 7.88379 19.0045 7.88413 19.0041L7.70739 18.8273M7.88311 19.0052C7.61059 19.277 7.24134 19.4297 6.85635 19.4297C6.47142 19.4297 6.10223 19.2771 5.82972 19.0053M7.88311 19.0052C7.88277 19.0055 7.88242 19.0058 7.88208 19.0062L7.70739 18.8273M7.70739 18.8273L5.82972 19.0053M5.82972 19.0053C5.83002 19.0056 5.83032 19.0059 5.83062 19.0062L6.00531 18.8273M5.82972 19.0053C5.82934 19.0049 5.82895 19.0045 5.82857 19.0041L6.00531 18.8273M5.82972 19.0053C5.71177 18.8905 5.55367 18.8263 5.38907 18.8263C5.22447 18.8263 5.06638 18.8905 4.94843 19.0053M5.82972 19.0053L6.00531 18.8273M6.00531 18.8273C5.84055 18.6664 5.61938 18.5763 5.38907 18.5763C5.15876 18.5763 4.93759 18.6664 4.77283 18.8273M4.94843 19.0053C4.94881 19.0049 4.94919 19.0045 4.94957 19.0041L4.77283 18.8273M4.94843 19.0053C4.94812 19.0056 4.94782 19.0059 4.94752 19.0062L4.77283 18.8273" stroke="black" stroke-opacity="0.2" stroke-width="0.5"/>
</g>
<g id="Vector_4">
<path d="M19.234 18.576L19.2141 18.5936C19.0474 18.7516 18.8265 18.8397 18.5968 18.8397C18.3671 18.8397 18.1461 18.7516 17.9794 18.5936C17.8679 18.482 17.7354 18.3934 17.5895 18.3329C17.4437 18.2725 17.2874 18.2414 17.1295 18.2414C16.9716 18.2414 16.8153 18.2725 16.6695 18.3329C16.5237 18.3934 16.3912 18.482 16.2796 18.5936C16.1131 18.7521 15.8921 18.8405 15.6622 18.8405C15.4324 18.8405 15.2113 18.7521 15.0449 18.5936C14.8191 18.368 14.513 18.2412 14.1938 18.2412C13.8747 18.2412 13.5685 18.368 13.3428 18.5936C13.178 18.7545 12.9569 18.8446 12.7266 18.8446C12.4963 18.8446 12.2751 18.7545 12.1103 18.5936C11.8846 18.368 11.5785 18.2412 11.2593 18.2412C10.9401 18.2412 10.634 18.368 10.4082 18.5936C10.2415 18.7516 10.0206 18.8397 9.79091 18.8397C9.56121 18.8397 9.34027 18.7516 9.17357 18.5936C9.06198 18.482 8.92948 18.3934 8.78364 18.3329C8.63781 18.2725 8.48149 18.2414 8.32363 18.2414C8.16576 18.2414 8.00945 18.2725 7.86361 18.3329C7.71777 18.3934 7.58528 18.482 7.47369 18.5936C7.30724 18.7521 7.0862 18.8405 6.85635 18.8405C6.6265 18.8405 6.40546 18.7521 6.23901 18.5936C6.01327 18.368 5.70715 18.2412 5.38797 18.2412C5.06878 18.2412 4.76267 18.368 4.53692 18.5936C4.37217 18.7545 4.151 18.8446 3.92069 18.8446C3.69038 18.8446 3.46921 18.7545 3.30445 18.5936C3.27311 18.5644 3.23165 18.5485 3.18881 18.5493C3.14597 18.55 3.1051 18.5674 3.0748 18.5977C3.0445 18.628 3.02715 18.6688 3.02639 18.7117C3.02564 18.7545 3.04154 18.796 3.07075 18.8273C3.29649 19.053 3.60261 19.1797 3.92179 19.1797C4.24097 19.1797 4.54709 19.053 4.77283 18.8273C4.93759 18.6664 5.15876 18.5763 5.38907 18.5763C5.61938 18.5763 5.84055 18.6664 6.00531 18.8273C6.23105 19.053 6.53717 19.1797 6.85635 19.1797C7.17553 19.1797 7.48165 19.053 7.70739 18.8273C7.87215 18.6664 8.09332 18.5763 8.32363 18.5763C8.55394 18.5763 8.77511 18.6664 8.93986 18.8273C9.16561 19.053 9.47172 19.1797 9.79091 19.1797C10.1101 19.1797 10.4162 19.053 10.6419 18.8273C10.8068 18.6657 11.0284 18.5752 11.2593 18.5752C11.4901 18.5752 11.7118 18.6657 11.8766 18.8273C11.9881 18.9392 12.1205 19.0281 12.2664 19.0887C12.4122 19.1493 12.5686 19.1805 12.7266 19.1805C12.8845 19.1805 13.0409 19.1493 13.1868 19.0887C13.3326 19.0281 13.4651 18.9392 13.5765 18.8273C13.7414 18.6657 13.963 18.5752 14.1938 18.5752C14.4247 18.5752 14.6463 18.6657 14.8112 18.8273C15.0369 19.053 15.343 19.1797 15.6622 19.1797C15.9814 19.1797 16.2875 19.053 16.5133 18.8273C16.678 18.6664 16.8992 18.5763 17.1295 18.5763C17.3598 18.5763 17.581 18.6664 17.7457 18.8273C17.9711 19.0503 18.2753 19.1753 18.5924 19.1753C18.9094 19.1753 19.2136 19.0503 19.439 18.8273L19.4589 18.8097C19.6237 18.6481 19.8453 18.5576 20.0762 18.5576C20.307 18.5576 20.5287 18.6481 20.6935 18.8097C20.7087 18.8253 20.7269 18.8377 20.747 18.8461C20.767 18.8546 20.7886 18.859 20.8104 18.859C20.8322 18.859 20.8537 18.8546 20.8738 18.8461C20.8939 18.8377 20.912 18.8253 20.9272 18.8097C20.9582 18.7787 20.9756 18.7366 20.9756 18.6928C20.9756 18.649 20.9582 18.607 20.9272 18.576C20.7021 18.3525 20.3978 18.2271 20.0806 18.2271C19.7634 18.2271 19.4591 18.3525 19.234 18.576Z" fill="black"/>
<path d="M19.0479 18.4067L19.048 18.4068L19.063 18.3935C19.3344 18.1267 19.6998 17.9771 20.0806 17.9771C20.4638 17.9771 20.8315 18.1286 21.1034 18.3986L21.1041 18.3993C21.1819 18.4772 21.2256 18.5828 21.2256 18.6928C21.2256 18.8029 21.1819 18.9085 21.1041 18.9863C21.0661 19.0248 21.0208 19.0555 20.971 19.0765C20.9201 19.0979 20.8655 19.109 20.8104 19.109C20.7552 19.109 20.7006 19.0979 20.6498 19.0765C20.6001 19.0555 20.5551 19.0251 20.5171 18.9869C20.3992 18.8719 20.2409 18.8076 20.0762 18.8076C19.9108 18.8076 19.752 18.8724 19.6339 18.9882L19.6251 18.9968L19.6249 18.9965L19.6099 19.0099C19.3382 19.2761 18.9729 19.4253 18.5924 19.4253C18.2098 19.4253 17.8426 19.2745 17.5705 19.0056C17.4525 18.8907 17.2943 18.8263 17.1295 18.8263C16.965 18.8263 16.8069 18.8905 16.689 19.0052C16.4165 19.277 16.0472 19.4297 15.6622 19.4297C15.2772 19.4297 14.908 19.277 14.6354 19.0051C14.5174 18.8898 14.3589 18.8252 14.1938 18.8252C14.0289 18.8252 13.8706 18.8897 13.7526 19.0048C13.6181 19.1395 13.4585 19.2465 13.2827 19.3195C13.1064 19.3928 12.9174 19.4305 12.7266 19.4305C12.5357 19.4305 12.3467 19.3928 12.1705 19.3195C11.9947 19.2465 11.8351 19.1396 11.7007 19.0049M19.0479 18.4067L11.8766 18.8273M19.0479 18.4067L19.0421 18.4122C18.9219 18.5262 18.7625 18.5897 18.5968 18.5897C18.4321 18.5897 18.2736 18.5269 18.1536 18.4142C18.0193 18.2806 17.8602 18.1745 17.6852 18.102C17.5091 18.029 17.3202 17.9914 17.1295 17.9914C16.9388 17.9914 16.75 18.029 16.5738 18.102C16.3987 18.1745 16.2395 18.2807 16.1052 18.4144C15.9855 18.5275 15.827 18.5905 15.6622 18.5905C15.4974 18.5905 15.3389 18.5275 15.2192 18.4144C14.9468 18.1434 14.5782 17.9912 14.1938 17.9912C13.8089 17.9912 13.4396 18.1439 13.1671 18.4158C13.0491 18.5305 12.8911 18.5946 12.7266 18.5946C12.562 18.5946 12.4039 18.5304 12.2859 18.4156C12.0134 18.1439 11.6442 17.9912 11.2593 17.9912C10.8751 17.9912 10.5065 18.1433 10.2342 18.4142C10.1141 18.5269 9.95564 18.5897 9.79091 18.5897C9.62619 18.5897 9.46771 18.5269 9.3477 18.4142C9.21346 18.2806 9.05436 18.1745 8.87935 18.102C8.70317 18.029 8.51434 17.9914 8.32363 17.9914C8.13292 17.9914 7.94408 18.029 7.7679 18.102C7.5928 18.1745 7.43361 18.2807 7.29932 18.4144C7.17959 18.5275 7.02111 18.5905 6.85635 18.5905C6.69157 18.5905 6.53307 18.5275 6.41334 18.4144C6.14095 18.1434 5.7723 17.9912 5.38797 17.9912C5.00304 17.9912 4.63385 18.1439 4.36133 18.4157C4.24338 18.5304 4.08529 18.5946 3.92069 18.5946C3.75567 18.5946 3.59719 18.5301 3.47914 18.4148L3.47919 18.4147L3.47488 18.4107C3.39615 18.3373 3.29201 18.2974 3.1844 18.2993C3.07679 18.3012 2.97412 18.3448 2.89802 18.4209C2.82192 18.497 2.77833 18.5997 2.77643 18.7073C2.77453 18.8149 2.81448 18.919 2.88784 18.9978L2.88773 18.9979L2.89401 19.0041C3.16663 19.2766 3.53632 19.4297 3.92179 19.4297C4.30672 19.4297 4.67591 19.2771 4.94843 19.0053M19.0479 18.4067L4.77283 18.8273M11.7007 19.0049C11.7003 19.0045 11.6999 19.0041 11.6995 19.0037L11.8766 18.8273M11.7007 19.0049C11.701 19.0052 11.7013 19.0055 11.7016 19.0059L11.8766 18.8273M11.7007 19.0049C11.5826 18.8897 11.4242 18.8252 11.2593 18.8252C11.0943 18.8252 10.9359 18.8898 10.8178 19.005M11.8766 18.8273C11.7118 18.6657 11.4901 18.5752 11.2593 18.5752C11.0284 18.5752 10.8068 18.6657 10.6419 18.8273M10.8178 19.005C10.8181 19.0047 10.8184 19.0044 10.8187 19.0041L10.6419 18.8273M10.8178 19.005C10.5453 19.277 10.176 19.4297 9.79091 19.4297C9.40598 19.4297 9.03679 19.2771 8.76427 19.0053M10.8178 19.005C10.8175 19.0053 10.8172 19.0056 10.8169 19.0059L10.6419 18.8273M10.6419 18.8273L8.76427 19.0053M8.76427 19.0053C8.76457 19.0056 8.76487 19.0059 8.76518 19.0062L8.93986 18.8273M8.76427 19.0053C8.76389 19.0049 8.76351 19.0045 8.76312 19.0041L8.93986 18.8273M8.76427 19.0053C8.64632 18.8905 8.48823 18.8263 8.32363 18.8263C8.15909 18.8263 8.00105 18.8905 7.88311 19.0052M8.76427 19.0053L8.93986 18.8273M8.93986 18.8273C8.77511 18.6664 8.55394 18.5763 8.32363 18.5763C8.09332 18.5763 7.87215 18.6664 7.70739 18.8273M7.88311 19.0052C7.88345 19.0048 7.88379 19.0045 7.88413 19.0041L7.70739 18.8273M7.88311 19.0052C7.61059 19.277 7.24134 19.4297 6.85635 19.4297C6.47142 19.4297 6.10223 19.2771 5.82972 19.0053M7.88311 19.0052C7.88277 19.0055 7.88242 19.0058 7.88208 19.0062L7.70739 18.8273M7.70739 18.8273L5.82972 19.0053M5.82972 19.0053C5.83002 19.0056 5.83032 19.0059 5.83062 19.0062L6.00531 18.8273M5.82972 19.0053C5.82934 19.0049 5.82895 19.0045 5.82857 19.0041L6.00531 18.8273M5.82972 19.0053C5.71177 18.8905 5.55367 18.8263 5.38907 18.8263C5.22447 18.8263 5.06638 18.8905 4.94843 19.0053M5.82972 19.0053L6.00531 18.8273M6.00531 18.8273C5.84055 18.6664 5.61938 18.5763 5.38907 18.5763C5.15876 18.5763 4.93759 18.6664 4.77283 18.8273M4.94843 19.0053C4.94881 19.0049 4.94919 19.0045 4.94957 19.0041L4.77283 18.8273M4.94843 19.0053C4.94812 19.0056 4.94782 19.0059 4.94752 19.0062L4.77283 18.8273" stroke="black" stroke-opacity="0.2" stroke-width="0.5"/>
</g>
<g id="Vector_5">
<mask id="path-9-outside-1_335_28125" maskUnits="userSpaceOnUse" x="2" y="4" width="20" height="12" fill="black">
<rect fill="white" x="2" y="4" width="20" height="12"/>
<path d="M3.16536 9.89141H8.74785V14.1863C8.53131 14.103 8.29525 14.0843 8.06828 14.1324C7.8413 14.1805 7.63316 14.2935 7.46908 14.4575C7.30423 14.6191 7.08259 14.7096 6.85175 14.7096C6.6209 14.7096 6.39926 14.6191 6.23441 14.4575C6.00866 14.2319 5.70255 14.1051 5.38336 14.1051C5.06418 14.1051 4.75806 14.2319 4.53232 14.4575C4.36756 14.6184 4.14639 14.7085 3.91608 14.7085C3.68578 14.7085 3.4646 14.6184 3.29985 14.4575C3.2685 14.4283 3.22704 14.4124 3.1842 14.4132C3.14136 14.4139 3.10049 14.4313 3.0702 14.4616C3.0399 14.4919 3.02254 14.5327 3.02179 14.5756C3.02103 14.6184 3.03693 14.6599 3.06614 14.6912C3.29189 14.9169 3.598 15.0436 3.91719 15.0436C4.23637 15.0436 4.54249 14.9169 4.76823 14.6912C4.93299 14.5303 5.15416 14.4402 5.38447 14.4402C5.61477 14.4402 5.83595 14.5303 6.0007 14.6912C6.22644 14.9169 6.53256 15.0436 6.85175 15.0436C7.17093 15.0436 7.47705 14.9169 7.70279 14.6912C7.86754 14.5303 8.08872 14.4402 8.31902 14.4402C8.54933 14.4402 8.7705 14.5303 8.93526 14.6912C9.161 14.9169 9.46712 15.0436 9.7863 15.0436C10.1055 15.0436 10.4116 14.9169 10.6373 14.6912C10.8022 14.5296 11.0238 14.4391 11.2547 14.4391C11.4855 14.4391 11.7072 14.5296 11.872 14.6912C12.0452 14.8632 12.2665 14.9785 12.5067 15.0218C12.7469 15.0651 12.9946 15.0344 13.2169 14.9337L13.2544 14.9139C13.3715 14.8581 13.4787 14.7836 13.5719 14.6934C13.7368 14.5318 13.9584 14.4413 14.1892 14.4413C14.4201 14.4413 14.6417 14.5318 14.8066 14.6934C15.0323 14.9191 15.3384 15.0458 15.6576 15.0458C15.9768 15.0458 16.2829 14.9191 16.5087 14.6934C16.6734 14.5325 16.8946 14.4424 17.1249 14.4424C17.3552 14.4424 17.5764 14.5325 17.7411 14.6934C17.9669 14.9191 18.273 15.0458 18.5922 15.0458C18.9114 15.0458 19.2175 14.9191 19.4432 14.6934L19.4609 14.6758C19.627 14.5224 19.8457 14.4388 20.0718 14.442C20.2979 14.4453 20.5141 14.5353 20.6757 14.6934C20.7067 14.7244 20.7487 14.7418 20.7925 14.7418C20.8364 14.7418 20.8784 14.7244 20.9094 14.6934C20.925 14.6782 20.9374 14.66 20.9459 14.64C20.9543 14.6199 20.9587 14.5983 20.9587 14.5766C20.9587 14.5548 20.9543 14.5332 20.9459 14.5132C20.9374 14.4931 20.925 14.4749 20.9094 14.4597C20.798 14.3478 20.6655 14.259 20.5197 14.1984C20.3738 14.1378 20.2174 14.1066 20.0595 14.1066C19.9015 14.1066 19.7451 14.1378 19.5993 14.1984C19.4534 14.259 19.321 14.3478 19.2095 14.4597L19.1919 14.4774C19.0256 14.6313 18.8064 14.7154 18.5798 14.7121C18.3532 14.7089 18.1366 14.6185 17.9748 14.4597C17.8634 14.3478 17.731 14.259 17.5851 14.1984C17.4392 14.1378 17.2828 14.1066 17.1249 14.1066C16.967 14.1066 16.8106 14.1378 16.6647 14.1984C16.5189 14.259 16.3864 14.3478 16.275 14.4597C16.1101 14.6213 15.8885 14.7118 15.6576 14.7118C15.4268 14.7118 15.2051 14.6213 15.0403 14.4597C14.8145 14.2341 14.5084 14.1073 14.1892 14.1073C13.8701 14.1073 13.5639 14.2341 13.3382 14.4597V9.89141H20.8344C20.8783 9.89141 20.9204 9.87399 20.9514 9.84298C20.9824 9.81197 20.9998 9.76991 20.9998 9.72606C20.9998 9.6822 20.9824 9.64014 20.9514 9.60913C20.9204 9.57812 20.8783 9.5607 20.8344 9.5607H15.4482V6.27558C15.4552 6.11067 15.4287 5.94604 15.3705 5.7916C15.3122 5.63717 15.2233 5.49613 15.109 5.37696C14.9948 5.25779 14.8577 5.16296 14.7059 5.09818C14.554 5.0334 14.3907 5 14.2256 5C14.0606 5 13.8972 5.0334 13.7454 5.09818C13.5936 5.16296 13.4564 5.25779 13.3422 5.37696C13.228 5.49613 13.1391 5.63717 13.0808 5.7916C13.0225 5.94604 12.9961 6.11067 13.0031 6.27558V9.5607H11.1952V6.27558C11.1952 5.95105 11.0662 5.63981 10.8368 5.41033C10.6073 5.18085 10.296 5.05193 9.9715 5.05193C9.64697 5.05193 9.33573 5.18085 9.10625 5.41033C8.87677 5.63981 8.74785 5.95105 8.74785 6.27558V9.5607H3.16536C3.1215 9.5607 3.07944 9.57812 3.04843 9.60913C3.01742 9.64014 3 9.6822 3 9.72606C3 9.76991 3.01742 9.81197 3.04843 9.84298C3.07944 9.87399 3.1215 9.89141 3.16536 9.89141ZM13.0031 12.9605H9.08298V11.6596H13.0031V12.9605ZM12.1212 14.4575C11.8954 14.2319 11.5893 14.1051 11.2701 14.1051C10.9509 14.1051 10.6448 14.2319 10.4191 14.4575C10.2542 14.6191 10.0326 14.7096 9.80174 14.7096C9.57089 14.7096 9.34925 14.6191 9.1844 14.4575C9.15574 14.4288 9.12267 14.4068 9.094 14.3825V13.2802H13.0031V14.6537C12.8505 14.7057 12.6866 14.715 12.5292 14.6804C12.3718 14.6458 12.2268 14.5687 12.1101 14.4575H12.1212ZM13.3338 6.27558C13.3338 6.03905 13.4277 5.81221 13.595 5.64496C13.7623 5.47771 13.9891 5.38375 14.2256 5.38375C14.4622 5.38375 14.689 5.47771 14.8562 5.64496C15.0235 5.81221 15.1175 6.03905 15.1175 6.27558V9.5607H13.3338V6.27558ZM13.0031 11.3289H9.08298V9.89141H13.0031V11.3289ZM9.08298 6.27558C9.08298 6.03934 9.17682 5.81278 9.34387 5.64574C9.51091 5.4787 9.73747 5.38485 9.97371 5.38485C10.2099 5.38485 10.4365 5.4787 10.6035 5.64574C10.7706 5.81278 10.8644 6.03934 10.8644 6.27558V9.5607H9.08298V6.27558Z"/>
</mask>
<path d="M3.16536 9.89141H8.74785V14.1863C8.53131 14.103 8.29525 14.0843 8.06828 14.1324C7.8413 14.1805 7.63316 14.2935 7.46908 14.4575C7.30423 14.6191 7.08259 14.7096 6.85175 14.7096C6.6209 14.7096 6.39926 14.6191 6.23441 14.4575C6.00866 14.2319 5.70255 14.1051 5.38336 14.1051C5.06418 14.1051 4.75806 14.2319 4.53232 14.4575C4.36756 14.6184 4.14639 14.7085 3.91608 14.7085C3.68578 14.7085 3.4646 14.6184 3.29985 14.4575C3.2685 14.4283 3.22704 14.4124 3.1842 14.4132C3.14136 14.4139 3.10049 14.4313 3.0702 14.4616C3.0399 14.4919 3.02254 14.5327 3.02179 14.5756C3.02103 14.6184 3.03693 14.6599 3.06614 14.6912C3.29189 14.9169 3.598 15.0436 3.91719 15.0436C4.23637 15.0436 4.54249 14.9169 4.76823 14.6912C4.93299 14.5303 5.15416 14.4402 5.38447 14.4402C5.61477 14.4402 5.83595 14.5303 6.0007 14.6912C6.22644 14.9169 6.53256 15.0436 6.85175 15.0436C7.17093 15.0436 7.47705 14.9169 7.70279 14.6912C7.86754 14.5303 8.08872 14.4402 8.31902 14.4402C8.54933 14.4402 8.7705 14.5303 8.93526 14.6912C9.161 14.9169 9.46712 15.0436 9.7863 15.0436C10.1055 15.0436 10.4116 14.9169 10.6373 14.6912C10.8022 14.5296 11.0238 14.4391 11.2547 14.4391C11.4855 14.4391 11.7072 14.5296 11.872 14.6912C12.0452 14.8632 12.2665 14.9785 12.5067 15.0218C12.7469 15.0651 12.9946 15.0344 13.2169 14.9337L13.2544 14.9139C13.3715 14.8581 13.4787 14.7836 13.5719 14.6934C13.7368 14.5318 13.9584 14.4413 14.1892 14.4413C14.4201 14.4413 14.6417 14.5318 14.8066 14.6934C15.0323 14.9191 15.3384 15.0458 15.6576 15.0458C15.9768 15.0458 16.2829 14.9191 16.5087 14.6934C16.6734 14.5325 16.8946 14.4424 17.1249 14.4424C17.3552 14.4424 17.5764 14.5325 17.7411 14.6934C17.9669 14.9191 18.273 15.0458 18.5922 15.0458C18.9114 15.0458 19.2175 14.9191 19.4432 14.6934L19.4609 14.6758C19.627 14.5224 19.8457 14.4388 20.0718 14.442C20.2979 14.4453 20.5141 14.5353 20.6757 14.6934C20.7067 14.7244 20.7487 14.7418 20.7925 14.7418C20.8364 14.7418 20.8784 14.7244 20.9094 14.6934C20.925 14.6782 20.9374 14.66 20.9459 14.64C20.9543 14.6199 20.9587 14.5983 20.9587 14.5766C20.9587 14.5548 20.9543 14.5332 20.9459 14.5132C20.9374 14.4931 20.925 14.4749 20.9094 14.4597C20.798 14.3478 20.6655 14.259 20.5197 14.1984C20.3738 14.1378 20.2174 14.1066 20.0595 14.1066C19.9015 14.1066 19.7451 14.1378 19.5993 14.1984C19.4534 14.259 19.321 14.3478 19.2095 14.4597L19.1919 14.4774C19.0256 14.6313 18.8064 14.7154 18.5798 14.7121C18.3532 14.7089 18.1366 14.6185 17.9748 14.4597C17.8634 14.3478 17.731 14.259 17.5851 14.1984C17.4392 14.1378 17.2828 14.1066 17.1249 14.1066C16.967 14.1066 16.8106 14.1378 16.6647 14.1984C16.5189 14.259 16.3864 14.3478 16.275 14.4597C16.1101 14.6213 15.8885 14.7118 15.6576 14.7118C15.4268 14.7118 15.2051 14.6213 15.0403 14.4597C14.8145 14.2341 14.5084 14.1073 14.1892 14.1073C13.8701 14.1073 13.5639 14.2341 13.3382 14.4597V9.89141H20.8344C20.8783 9.89141 20.9204 9.87399 20.9514 9.84298C20.9824 9.81197 20.9998 9.76991 20.9998 9.72606C20.9998 9.6822 20.9824 9.64014 20.9514 9.60913C20.9204 9.57812 20.8783 9.5607 20.8344 9.5607H15.4482V6.27558C15.4552 6.11067 15.4287 5.94604 15.3705 5.7916C15.3122 5.63717 15.2233 5.49613 15.109 5.37696C14.9948 5.25779 14.8577 5.16296 14.7059 5.09818C14.554 5.0334 14.3907 5 14.2256 5C14.0606 5 13.8972 5.0334 13.7454 5.09818C13.5936 5.16296 13.4564 5.25779 13.3422 5.37696C13.228 5.49613 13.1391 5.63717 13.0808 5.7916C13.0225 5.94604 12.9961 6.11067 13.0031 6.27558V9.5607H11.1952V6.27558C11.1952 5.95105 11.0662 5.63981 10.8368 5.41033C10.6073 5.18085 10.296 5.05193 9.9715 5.05193C9.64697 5.05193 9.33573 5.18085 9.10625 5.41033C8.87677 5.63981 8.74785 5.95105 8.74785 6.27558V9.5607H3.16536C3.1215 9.5607 3.07944 9.57812 3.04843 9.60913C3.01742 9.64014 3 9.6822 3 9.72606C3 9.76991 3.01742 9.81197 3.04843 9.84298C3.07944 9.87399 3.1215 9.89141 3.16536 9.89141ZM13.0031 12.9605H9.08298V11.6596H13.0031V12.9605ZM12.1212 14.4575C11.8954 14.2319 11.5893 14.1051 11.2701 14.1051C10.9509 14.1051 10.6448 14.2319 10.4191 14.4575C10.2542 14.6191 10.0326 14.7096 9.80174 14.7096C9.57089 14.7096 9.34925 14.6191 9.1844 14.4575C9.15574 14.4288 9.12267 14.4068 9.094 14.3825V13.2802H13.0031V14.6537C12.8505 14.7057 12.6866 14.715 12.5292 14.6804C12.3718 14.6458 12.2268 14.5687 12.1101 14.4575H12.1212ZM13.3338 6.27558C13.3338 6.03905 13.4277 5.81221 13.595 5.64496C13.7623 5.47771 13.9891 5.38375 14.2256 5.38375C14.4622 5.38375 14.689 5.47771 14.8562 5.64496C15.0235 5.81221 15.1175 6.03905 15.1175 6.27558V9.5607H13.3338V6.27558ZM13.0031 11.3289H9.08298V9.89141H13.0031V11.3289ZM9.08298 6.27558C9.08298 6.03934 9.17682 5.81278 9.34387 5.64574C9.51091 5.4787 9.73747 5.38485 9.97371 5.38485C10.2099 5.38485 10.4365 5.4787 10.6035 5.64574C10.7706 5.81278 10.8644 6.03934 10.8644 6.27558V9.5607H9.08298V6.27558Z" fill="black"/>
<path d="M3.16536 9.89141H8.74785V14.1863C8.53131 14.103 8.29525 14.0843 8.06828 14.1324C7.8413 14.1805 7.63316 14.2935 7.46908 14.4575C7.30423 14.6191 7.08259 14.7096 6.85175 14.7096C6.6209 14.7096 6.39926 14.6191 6.23441 14.4575C6.00866 14.2319 5.70255 14.1051 5.38336 14.1051C5.06418 14.1051 4.75806 14.2319 4.53232 14.4575C4.36756 14.6184 4.14639 14.7085 3.91608 14.7085C3.68578 14.7085 3.4646 14.6184 3.29985 14.4575C3.2685 14.4283 3.22704 14.4124 3.1842 14.4132C3.14136 14.4139 3.10049 14.4313 3.0702 14.4616C3.0399 14.4919 3.02254 14.5327 3.02179 14.5756C3.02103 14.6184 3.03693 14.6599 3.06614 14.6912C3.29189 14.9169 3.598 15.0436 3.91719 15.0436C4.23637 15.0436 4.54249 14.9169 4.76823 14.6912C4.93299 14.5303 5.15416 14.4402 5.38447 14.4402C5.61477 14.4402 5.83595 14.5303 6.0007 14.6912C6.22644 14.9169 6.53256 15.0436 6.85175 15.0436C7.17093 15.0436 7.47705 14.9169 7.70279 14.6912C7.86754 14.5303 8.08872 14.4402 8.31902 14.4402C8.54933 14.4402 8.7705 14.5303 8.93526 14.6912C9.161 14.9169 9.46712 15.0436 9.7863 15.0436C10.1055 15.0436 10.4116 14.9169 10.6373 14.6912C10.8022 14.5296 11.0238 14.4391 11.2547 14.4391C11.4855 14.4391 11.7072 14.5296 11.872 14.6912C12.0452 14.8632 12.2665 14.9785 12.5067 15.0218C12.7469 15.0651 12.9946 15.0344 13.2169 14.9337L13.2544 14.9139C13.3715 14.8581 13.4787 14.7836 13.5719 14.6934C13.7368 14.5318 13.9584 14.4413 14.1892 14.4413C14.4201 14.4413 14.6417 14.5318 14.8066 14.6934C15.0323 14.9191 15.3384 15.0458 15.6576 15.0458C15.9768 15.0458 16.2829 14.9191 16.5087 14.6934C16.6734 14.5325 16.8946 14.4424 17.1249 14.4424C17.3552 14.4424 17.5764 14.5325 17.7411 14.6934C17.9669 14.9191 18.273 15.0458 18.5922 15.0458C18.9114 15.0458 19.2175 14.9191 19.4432 14.6934L19.4609 14.6758C19.627 14.5224 19.8457 14.4388 20.0718 14.442C20.2979 14.4453 20.5141 14.5353 20.6757 14.6934C20.7067 14.7244 20.7487 14.7418 20.7925 14.7418C20.8364 14.7418 20.8784 14.7244 20.9094 14.6934C20.925 14.6782 20.9374 14.66 20.9459 14.64C20.9543 14.6199 20.9587 14.5983 20.9587 14.5766C20.9587 14.5548 20.9543 14.5332 20.9459 14.5132C20.9374 14.4931 20.925 14.4749 20.9094 14.4597C20.798 14.3478 20.6655 14.259 20.5197 14.1984C20.3738 14.1378 20.2174 14.1066 20.0595 14.1066C19.9015 14.1066 19.7451 14.1378 19.5993 14.1984C19.4534 14.259 19.321 14.3478 19.2095 14.4597L19.1919 14.4774C19.0256 14.6313 18.8064 14.7154 18.5798 14.7121C18.3532 14.7089 18.1366 14.6185 17.9748 14.4597C17.8634 14.3478 17.731 14.259 17.5851 14.1984C17.4392 14.1378 17.2828 14.1066 17.1249 14.1066C16.967 14.1066 16.8106 14.1378 16.6647 14.1984C16.5189 14.259 16.3864 14.3478 16.275 14.4597C16.1101 14.6213 15.8885 14.7118 15.6576 14.7118C15.4268 14.7118 15.2051 14.6213 15.0403 14.4597C14.8145 14.2341 14.5084 14.1073 14.1892 14.1073C13.8701 14.1073 13.5639 14.2341 13.3382 14.4597V9.89141H20.8344C20.8783 9.89141 20.9204 9.87399 20.9514 9.84298C20.9824 9.81197 20.9998 9.76991 20.9998 9.72606C20.9998 9.6822 20.9824 9.64014 20.9514 9.60913C20.9204 9.57812 20.8783 9.5607 20.8344 9.5607H15.4482V6.27558C15.4552 6.11067 15.4287 5.94604 15.3705 5.7916C15.3122 5.63717 15.2233 5.49613 15.109 5.37696C14.9948 5.25779 14.8577 5.16296 14.7059 5.09818C14.554 5.0334 14.3907 5 14.2256 5C14.0606 5 13.8972 5.0334 13.7454 5.09818C13.5936 5.16296 13.4564 5.25779 13.3422 5.37696C13.228 5.49613 13.1391 5.63717 13.0808 5.7916C13.0225 5.94604 12.9961 6.11067 13.0031 6.27558V9.5607H11.1952V6.27558C11.1952 5.95105 11.0662 5.63981 10.8368 5.41033C10.6073 5.18085 10.296 5.05193 9.9715 5.05193C9.64697 5.05193 9.33573 5.18085 9.10625 5.41033C8.87677 5.63981 8.74785 5.95105 8.74785 6.27558V9.5607H3.16536C3.1215 9.5607 3.07944 9.57812 3.04843 9.60913C3.01742 9.64014 3 9.6822 3 9.72606C3 9.76991 3.01742 9.81197 3.04843 9.84298C3.07944 9.87399 3.1215 9.89141 3.16536 9.89141ZM13.0031 12.9605H9.08298V11.6596H13.0031V12.9605ZM12.1212 14.4575C11.8954 14.2319 11.5893 14.1051 11.2701 14.1051C10.9509 14.1051 10.6448 14.2319 10.4191 14.4575C10.2542 14.6191 10.0326 14.7096 9.80174 14.7096C9.57089 14.7096 9.34925 14.6191 9.1844 14.4575C9.15574 14.4288 9.12267 14.4068 9.094 14.3825V13.2802H13.0031V14.6537C12.8505 14.7057 12.6866 14.715 12.5292 14.6804C12.3718 14.6458 12.2268 14.5687 12.1101 14.4575H12.1212ZM13.3338 6.27558C13.3338 6.03905 13.4277 5.81221 13.595 5.64496C13.7623 5.47771 13.9891 5.38375 14.2256 5.38375C14.4622 5.38375 14.689 5.47771 14.8562 5.64496C15.0235 5.81221 15.1175 6.03905 15.1175 6.27558V9.5607H13.3338V6.27558ZM13.0031 11.3289H9.08298V9.89141H13.0031V11.3289ZM9.08298 6.27558C9.08298 6.03934 9.17682 5.81278 9.34387 5.64574C9.51091 5.4787 9.73747 5.38485 9.97371 5.38485C10.2099 5.38485 10.4365 5.4787 10.6035 5.64574C10.7706 5.81278 10.8644 6.03934 10.8644 6.27558V9.5607H9.08298V6.27558Z" stroke="black" stroke-opacity="0.2" mask="url(#path-9-outside-1_335_28125)"/>
</g>
<g id="Vector_6">
<mask id="path-10-outside-2_335_28125" maskUnits="userSpaceOnUse" x="2" y="4" width="20" height="12" fill="black">
<rect fill="white" x="2" y="4" width="20" height="12"/>
<path d="M3.16536 9.89141H8.74785V14.1863C8.53131 14.103 8.29525 14.0843 8.06828 14.1324C7.8413 14.1805 7.63316 14.2935 7.46908 14.4575C7.30423 14.6191 7.08259 14.7096 6.85175 14.7096C6.6209 14.7096 6.39926 14.6191 6.23441 14.4575C6.00866 14.2319 5.70255 14.1051 5.38336 14.1051C5.06418 14.1051 4.75806 14.2319 4.53232 14.4575C4.36756 14.6184 4.14639 14.7085 3.91608 14.7085C3.68578 14.7085 3.4646 14.6184 3.29985 14.4575C3.2685 14.4283 3.22704 14.4124 3.1842 14.4132C3.14136 14.4139 3.10049 14.4313 3.0702 14.4616C3.0399 14.4919 3.02254 14.5327 3.02179 14.5756C3.02103 14.6184 3.03693 14.6599 3.06614 14.6912C3.29189 14.9169 3.598 15.0436 3.91719 15.0436C4.23637 15.0436 4.54249 14.9169 4.76823 14.6912C4.93299 14.5303 5.15416 14.4402 5.38447 14.4402C5.61477 14.4402 5.83595 14.5303 6.0007 14.6912C6.22644 14.9169 6.53256 15.0436 6.85175 15.0436C7.17093 15.0436 7.47705 14.9169 7.70279 14.6912C7.86754 14.5303 8.08872 14.4402 8.31902 14.4402C8.54933 14.4402 8.7705 14.5303 8.93526 14.6912C9.161 14.9169 9.46712 15.0436 9.7863 15.0436C10.1055 15.0436 10.4116 14.9169 10.6373 14.6912C10.8022 14.5296 11.0238 14.4391 11.2547 14.4391C11.4855 14.4391 11.7072 14.5296 11.872 14.6912C12.0452 14.8632 12.2665 14.9785 12.5067 15.0218C12.7469 15.0651 12.9946 15.0344 13.2169 14.9337L13.2544 14.9139C13.3715 14.8581 13.4787 14.7836 13.5719 14.6934C13.7368 14.5318 13.9584 14.4413 14.1892 14.4413C14.4201 14.4413 14.6417 14.5318 14.8066 14.6934C15.0323 14.9191 15.3384 15.0458 15.6576 15.0458C15.9768 15.0458 16.2829 14.9191 16.5087 14.6934C16.6734 14.5325 16.8946 14.4424 17.1249 14.4424C17.3552 14.4424 17.5764 14.5325 17.7411 14.6934C17.9669 14.9191 18.273 15.0458 18.5922 15.0458C18.9114 15.0458 19.2175 14.9191 19.4432 14.6934L19.4609 14.6758C19.627 14.5224 19.8457 14.4388 20.0718 14.442C20.2979 14.4453 20.5141 14.5353 20.6757 14.6934C20.7067 14.7244 20.7487 14.7418 20.7925 14.7418C20.8364 14.7418 20.8784 14.7244 20.9094 14.6934C20.925 14.6782 20.9374 14.66 20.9459 14.64C20.9543 14.6199 20.9587 14.5983 20.9587 14.5766C20.9587 14.5548 20.9543 14.5332 20.9459 14.5132C20.9374 14.4931 20.925 14.4749 20.9094 14.4597C20.798 14.3478 20.6655 14.259 20.5197 14.1984C20.3738 14.1378 20.2174 14.1066 20.0595 14.1066C19.9015 14.1066 19.7451 14.1378 19.5993 14.1984C19.4534 14.259 19.321 14.3478 19.2095 14.4597L19.1919 14.4774C19.0256 14.6313 18.8064 14.7154 18.5798 14.7121C18.3532 14.7089 18.1366 14.6185 17.9748 14.4597C17.8634 14.3478 17.731 14.259 17.5851 14.1984C17.4392 14.1378 17.2828 14.1066 17.1249 14.1066C16.967 14.1066 16.8106 14.1378 16.6647 14.1984C16.5189 14.259 16.3864 14.3478 16.275 14.4597C16.1101 14.6213 15.8885 14.7118 15.6576 14.7118C15.4268 14.7118 15.2051 14.6213 15.0403 14.4597C14.8145 14.2341 14.5084 14.1073 14.1892 14.1073C13.8701 14.1073 13.5639 14.2341 13.3382 14.4597V9.89141H20.8344C20.8783 9.89141 20.9204 9.87399 20.9514 9.84298C20.9824 9.81197 20.9998 9.76991 20.9998 9.72606C20.9998 9.6822 20.9824 9.64014 20.9514 9.60913C20.9204 9.57812 20.8783 9.5607 20.8344 9.5607H15.4482V6.27558C15.4552 6.11067 15.4287 5.94604 15.3705 5.7916C15.3122 5.63717 15.2233 5.49613 15.109 5.37696C14.9948 5.25779 14.8577 5.16296 14.7059 5.09818C14.554 5.0334 14.3907 5 14.2256 5C14.0606 5 13.8972 5.0334 13.7454 5.09818C13.5936 5.16296 13.4564 5.25779 13.3422 5.37696C13.228 5.49613 13.1391 5.63717 13.0808 5.7916C13.0225 5.94604 12.9961 6.11067 13.0031 6.27558V9.5607H11.1952V6.27558C11.1952 5.95105 11.0662 5.63981 10.8368 5.41033C10.6073 5.18085 10.296 5.05193 9.9715 5.05193C9.64697 5.05193 9.33573 5.18085 9.10625 5.41033C8.87677 5.63981 8.74785 5.95105 8.74785 6.27558V9.5607H3.16536C3.1215 9.5607 3.07944 9.57812 3.04843 9.60913C3.01742 9.64014 3 9.6822 3 9.72606C3 9.76991 3.01742 9.81197 3.04843 9.84298C3.07944 9.87399 3.1215 9.89141 3.16536 9.89141ZM13.0031 12.9605H9.08298V11.6596H13.0031V12.9605ZM12.1212 14.4575C11.8954 14.2319 11.5893 14.1051 11.2701 14.1051C10.9509 14.1051 10.6448 14.2319 10.4191 14.4575C10.2542 14.6191 10.0326 14.7096 9.80174 14.7096C9.57089 14.7096 9.34925 14.6191 9.1844 14.4575C9.15574 14.4288 9.12267 14.4068 9.094 14.3825V13.2802H13.0031V14.6537C12.8505 14.7057 12.6866 14.715 12.5292 14.6804C12.3718 14.6458 12.2268 14.5687 12.1101 14.4575H12.1212ZM13.3338 6.27558C13.3338 6.03905 13.4277 5.81221 13.595 5.64496C13.7623 5.47771 13.9891 5.38375 14.2256 5.38375C14.4622 5.38375 14.689 5.47771 14.8562 5.64496C15.0235 5.81221 15.1175 6.03905 15.1175 6.27558V9.5607H13.3338V6.27558ZM13.0031 11.3289H9.08298V9.89141H13.0031V11.3289ZM9.08298 6.27558C9.08298 6.03934 9.17682 5.81278 9.34387 5.64574C9.51091 5.4787 9.73747 5.38485 9.97371 5.38485C10.2099 5.38485 10.4365 5.4787 10.6035 5.64574C10.7706 5.81278 10.8644 6.03934 10.8644 6.27558V9.5607H9.08298V6.27558Z"/>
</mask>
<path d="M3.16536 9.89141H8.74785V14.1863C8.53131 14.103 8.29525 14.0843 8.06828 14.1324C7.8413 14.1805 7.63316 14.2935 7.46908 14.4575C7.30423 14.6191 7.08259 14.7096 6.85175 14.7096C6.6209 14.7096 6.39926 14.6191 6.23441 14.4575C6.00866 14.2319 5.70255 14.1051 5.38336 14.1051C5.06418 14.1051 4.75806 14.2319 4.53232 14.4575C4.36756 14.6184 4.14639 14.7085 3.91608 14.7085C3.68578 14.7085 3.4646 14.6184 3.29985 14.4575C3.2685 14.4283 3.22704 14.4124 3.1842 14.4132C3.14136 14.4139 3.10049 14.4313 3.0702 14.4616C3.0399 14.4919 3.02254 14.5327 3.02179 14.5756C3.02103 14.6184 3.03693 14.6599 3.06614 14.6912C3.29189 14.9169 3.598 15.0436 3.91719 15.0436C4.23637 15.0436 4.54249 14.9169 4.76823 14.6912C4.93299 14.5303 5.15416 14.4402 5.38447 14.4402C5.61477 14.4402 5.83595 14.5303 6.0007 14.6912C6.22644 14.9169 6.53256 15.0436 6.85175 15.0436C7.17093 15.0436 7.47705 14.9169 7.70279 14.6912C7.86754 14.5303 8.08872 14.4402 8.31902 14.4402C8.54933 14.4402 8.7705 14.5303 8.93526 14.6912C9.161 14.9169 9.46712 15.0436 9.7863 15.0436C10.1055 15.0436 10.4116 14.9169 10.6373 14.6912C10.8022 14.5296 11.0238 14.4391 11.2547 14.4391C11.4855 14.4391 11.7072 14.5296 11.872 14.6912C12.0452 14.8632 12.2665 14.9785 12.5067 15.0218C12.7469 15.0651 12.9946 15.0344 13.2169 14.9337L13.2544 14.9139C13.3715 14.8581 13.4787 14.7836 13.5719 14.6934C13.7368 14.5318 13.9584 14.4413 14.1892 14.4413C14.4201 14.4413 14.6417 14.5318 14.8066 14.6934C15.0323 14.9191 15.3384 15.0458 15.6576 15.0458C15.9768 15.0458 16.2829 14.9191 16.5087 14.6934C16.6734 14.5325 16.8946 14.4424 17.1249 14.4424C17.3552 14.4424 17.5764 14.5325 17.7411 14.6934C17.9669 14.9191 18.273 15.0458 18.5922 15.0458C18.9114 15.0458 19.2175 14.9191 19.4432 14.6934L19.4609 14.6758C19.627 14.5224 19.8457 14.4388 20.0718 14.442C20.2979 14.4453 20.5141 14.5353 20.6757 14.6934C20.7067 14.7244 20.7487 14.7418 20.7925 14.7418C20.8364 14.7418 20.8784 14.7244 20.9094 14.6934C20.925 14.6782 20.9374 14.66 20.9459 14.64C20.9543 14.6199 20.9587 14.5983 20.9587 14.5766C20.9587 14.5548 20.9543 14.5332 20.9459 14.5132C20.9374 14.4931 20.925 14.4749 20.9094 14.4597C20.798 14.3478 20.6655 14.259 20.5197 14.1984C20.3738 14.1378 20.2174 14.1066 20.0595 14.1066C19.9015 14.1066 19.7451 14.1378 19.5993 14.1984C19.4534 14.259 19.321 14.3478 19.2095 14.4597L19.1919 14.4774C19.0256 14.6313 18.8064 14.7154 18.5798 14.7121C18.3532 14.7089 18.1366 14.6185 17.9748 14.4597C17.8634 14.3478 17.731 14.259 17.5851 14.1984C17.4392 14.1378 17.2828 14.1066 17.1249 14.1066C16.967 14.1066 16.8106 14.1378 16.6647 14.1984C16.5189 14.259 16.3864 14.3478 16.275 14.4597C16.1101 14.6213 15.8885 14.7118 15.6576 14.7118C15.4268 14.7118 15.2051 14.6213 15.0403 14.4597C14.8145 14.2341 14.5084 14.1073 14.1892 14.1073C13.8701 14.1073 13.5639 14.2341 13.3382 14.4597V9.89141H20.8344C20.8783 9.89141 20.9204 9.87399 20.9514 9.84298C20.9824 9.81197 20.9998 9.76991 20.9998 9.72606C20.9998 9.6822 20.9824 9.64014 20.9514 9.60913C20.9204 9.57812 20.8783 9.5607 20.8344 9.5607H15.4482V6.27558C15.4552 6.11067 15.4287 5.94604 15.3705 5.7916C15.3122 5.63717 15.2233 5.49613 15.109 5.37696C14.9948 5.25779 14.8577 5.16296 14.7059 5.09818C14.554 5.0334 14.3907 5 14.2256 5C14.0606 5 13.8972 5.0334 13.7454 5.09818C13.5936 5.16296 13.4564 5.25779 13.3422 5.37696C13.228 5.49613 13.1391 5.63717 13.0808 5.7916C13.0225 5.94604 12.9961 6.11067 13.0031 6.27558V9.5607H11.1952V6.27558C11.1952 5.95105 11.0662 5.63981 10.8368 5.41033C10.6073 5.18085 10.296 5.05193 9.9715 5.05193C9.64697 5.05193 9.33573 5.18085 9.10625 5.41033C8.87677 5.63981 8.74785 5.95105 8.74785 6.27558V9.5607H3.16536C3.1215 9.5607 3.07944 9.57812 3.04843 9.60913C3.01742 9.64014 3 9.6822 3 9.72606C3 9.76991 3.01742 9.81197 3.04843 9.84298C3.07944 9.87399 3.1215 9.89141 3.16536 9.89141ZM13.0031 12.9605H9.08298V11.6596H13.0031V12.9605ZM12.1212 14.4575C11.8954 14.2319 11.5893 14.1051 11.2701 14.1051C10.9509 14.1051 10.6448 14.2319 10.4191 14.4575C10.2542 14.6191 10.0326 14.7096 9.80174 14.7096C9.57089 14.7096 9.34925 14.6191 9.1844 14.4575C9.15574 14.4288 9.12267 14.4068 9.094 14.3825V13.2802H13.0031V14.6537C12.8505 14.7057 12.6866 14.715 12.5292 14.6804C12.3718 14.6458 12.2268 14.5687 12.1101 14.4575H12.1212ZM13.3338 6.27558C13.3338 6.03905 13.4277 5.81221 13.595 5.64496C13.7623 5.47771 13.9891 5.38375 14.2256 5.38375C14.4622 5.38375 14.689 5.47771 14.8562 5.64496C15.0235 5.81221 15.1175 6.03905 15.1175 6.27558V9.5607H13.3338V6.27558ZM13.0031 11.3289H9.08298V9.89141H13.0031V11.3289ZM9.08298 6.27558C9.08298 6.03934 9.17682 5.81278 9.34387 5.64574C9.51091 5.4787 9.73747 5.38485 9.97371 5.38485C10.2099 5.38485 10.4365 5.4787 10.6035 5.64574C10.7706 5.81278 10.8644 6.03934 10.8644 6.27558V9.5607H9.08298V6.27558Z" fill="black"/>
<path d="M3.16536 9.89141H8.74785V14.1863C8.53131 14.103 8.29525 14.0843 8.06828 14.1324C7.8413 14.1805 7.63316 14.2935 7.46908 14.4575C7.30423 14.6191 7.08259 14.7096 6.85175 14.7096C6.6209 14.7096 6.39926 14.6191 6.23441 14.4575C6.00866 14.2319 5.70255 14.1051 5.38336 14.1051C5.06418 14.1051 4.75806 14.2319 4.53232 14.4575C4.36756 14.6184 4.14639 14.7085 3.91608 14.7085C3.68578 14.7085 3.4646 14.6184 3.29985 14.4575C3.2685 14.4283 3.22704 14.4124 3.1842 14.4132C3.14136 14.4139 3.10049 14.4313 3.0702 14.4616C3.0399 14.4919 3.02254 14.5327 3.02179 14.5756C3.02103 14.6184 3.03693 14.6599 3.06614 14.6912C3.29189 14.9169 3.598 15.0436 3.91719 15.0436C4.23637 15.0436 4.54249 14.9169 4.76823 14.6912C4.93299 14.5303 5.15416 14.4402 5.38447 14.4402C5.61477 14.4402 5.83595 14.5303 6.0007 14.6912C6.22644 14.9169 6.53256 15.0436 6.85175 15.0436C7.17093 15.0436 7.47705 14.9169 7.70279 14.6912C7.86754 14.5303 8.08872 14.4402 8.31902 14.4402C8.54933 14.4402 8.7705 14.5303 8.93526 14.6912C9.161 14.9169 9.46712 15.0436 9.7863 15.0436C10.1055 15.0436 10.4116 14.9169 10.6373 14.6912C10.8022 14.5296 11.0238 14.4391 11.2547 14.4391C11.4855 14.4391 11.7072 14.5296 11.872 14.6912C12.0452 14.8632 12.2665 14.9785 12.5067 15.0218C12.7469 15.0651 12.9946 15.0344 13.2169 14.9337L13.2544 14.9139C13.3715 14.8581 13.4787 14.7836 13.5719 14.6934C13.7368 14.5318 13.9584 14.4413 14.1892 14.4413C14.4201 14.4413 14.6417 14.5318 14.8066 14.6934C15.0323 14.9191 15.3384 15.0458 15.6576 15.0458C15.9768 15.0458 16.2829 14.9191 16.5087 14.6934C16.6734 14.5325 16.8946 14.4424 17.1249 14.4424C17.3552 14.4424 17.5764 14.5325 17.7411 14.6934C17.9669 14.9191 18.273 15.0458 18.5922 15.0458C18.9114 15.0458 19.2175 14.9191 19.4432 14.6934L19.4609 14.6758C19.627 14.5224 19.8457 14.4388 20.0718 14.442C20.2979 14.4453 20.5141 14.5353 20.6757 14.6934C20.7067 14.7244 20.7487 14.7418 20.7925 14.7418C20.8364 14.7418 20.8784 14.7244 20.9094 14.6934C20.925 14.6782 20.9374 14.66 20.9459 14.64C20.9543 14.6199 20.9587 14.5983 20.9587 14.5766C20.9587 14.5548 20.9543 14.5332 20.9459 14.5132C20.9374 14.4931 20.925 14.4749 20.9094 14.4597C20.798 14.3478 20.6655 14.259 20.5197 14.1984C20.3738 14.1378 20.2174 14.1066 20.0595 14.1066C19.9015 14.1066 19.7451 14.1378 19.5993 14.1984C19.4534 14.259 19.321 14.3478 19.2095 14.4597L19.1919 14.4774C19.0256 14.6313 18.8064 14.7154 18.5798 14.7121C18.3532 14.7089 18.1366 14.6185 17.9748 14.4597C17.8634 14.3478 17.731 14.259 17.5851 14.1984C17.4392 14.1378 17.2828 14.1066 17.1249 14.1066C16.967 14.1066 16.8106 14.1378 16.6647 14.1984C16.5189 14.259 16.3864 14.3478 16.275 14.4597C16.1101 14.6213 15.8885 14.7118 15.6576 14.7118C15.4268 14.7118 15.2051 14.6213 15.0403 14.4597C14.8145 14.2341 14.5084 14.1073 14.1892 14.1073C13.8701 14.1073 13.5639 14.2341 13.3382 14.4597V9.89141H20.8344C20.8783 9.89141 20.9204 9.87399 20.9514 9.84298C20.9824 9.81197 20.9998 9.76991 20.9998 9.72606C20.9998 9.6822 20.9824 9.64014 20.9514 9.60913C20.9204 9.57812 20.8783 9.5607 20.8344 9.5607H15.4482V6.27558C15.4552 6.11067 15.4287 5.94604 15.3705 5.7916C15.3122 5.63717 15.2233 5.49613 15.109 5.37696C14.9948 5.25779 14.8577 5.16296 14.7059 5.09818C14.554 5.0334 14.3907 5 14.2256 5C14.0606 5 13.8972 5.0334 13.7454 5.09818C13.5936 5.16296 13.4564 5.25779 13.3422 5.37696C13.228 5.49613 13.1391 5.63717 13.0808 5.7916C13.0225 5.94604 12.9961 6.11067 13.0031 6.27558V9.5607H11.1952V6.27558C11.1952 5.95105 11.0662 5.63981 10.8368 5.41033C10.6073 5.18085 10.296 5.05193 9.9715 5.05193C9.64697 5.05193 9.33573 5.18085 9.10625 5.41033C8.87677 5.63981 8.74785 5.95105 8.74785 6.27558V9.5607H3.16536C3.1215 9.5607 3.07944 9.57812 3.04843 9.60913C3.01742 9.64014 3 9.6822 3 9.72606C3 9.76991 3.01742 9.81197 3.04843 9.84298C3.07944 9.87399 3.1215 9.89141 3.16536 9.89141ZM13.0031 12.9605H9.08298V11.6596H13.0031V12.9605ZM12.1212 14.4575C11.8954 14.2319 11.5893 14.1051 11.2701 14.1051C10.9509 14.1051 10.6448 14.2319 10.4191 14.4575C10.2542 14.6191 10.0326 14.7096 9.80174 14.7096C9.57089 14.7096 9.34925 14.6191 9.1844 14.4575C9.15574 14.4288 9.12267 14.4068 9.094 14.3825V13.2802H13.0031V14.6537C12.8505 14.7057 12.6866 14.715 12.5292 14.6804C12.3718 14.6458 12.2268 14.5687 12.1101 14.4575H12.1212ZM13.3338 6.27558C13.3338 6.03905 13.4277 5.81221 13.595 5.64496C13.7623 5.47771 13.9891 5.38375 14.2256 5.38375C14.4622 5.38375 14.689 5.47771 14.8562 5.64496C15.0235 5.81221 15.1175 6.03905 15.1175 6.27558V9.5607H13.3338V6.27558ZM13.0031 11.3289H9.08298V9.89141H13.0031V11.3289ZM9.08298 6.27558C9.08298 6.03934 9.17682 5.81278 9.34387 5.64574C9.51091 5.4787 9.73747 5.38485 9.97371 5.38485C10.2099 5.38485 10.4365 5.4787 10.6035 5.64574C10.7706 5.81278 10.8644 6.03934 10.8644 6.27558V9.5607H9.08298V6.27558Z" stroke="black" stroke-opacity="0.2" mask="url(#path-10-outside-2_335_28125)"/>
</g>
</g>
</g>
</svg>
