<svg width="24" height="24" viewBox="0 0 24 24" fill="none" xmlns="http://www.w3.org/2000/svg">
<g id="Sleep">
<g id="Group">
<path id="Vector" d="M3.08551 5.00007C3.06176 5.00306 3.03994 5.01467 3.02418 5.03269C3.00842 5.0507 2.99982 5.07386 3 5.09779V19.2188C3.00001 19.2447 3.0103 19.2695 3.02863 19.2878C3.04695 19.3062 3.07181 19.3165 3.09773 19.3165H5.48588C5.5118 19.3165 5.53665 19.3062 5.55498 19.2878C5.5733 19.2695 5.5836 19.2447 5.5836 19.2188V14.4671H10.3232V15.9879C10.3235 16.0186 10.3358 16.0479 10.3575 16.0696C10.3792 16.0913 10.4085 16.1036 10.4392 16.1039H17.5914V19.2189C17.5914 19.2449 17.6017 19.2697 17.62 19.288C17.6383 19.3064 17.6632 19.3167 17.6891 19.3167H20.0772C20.1031 19.3167 20.128 19.3064 20.1463 19.288C20.1647 19.2697 20.1749 19.2449 20.175 19.2189V12.6105V11.9753C20.1749 11.9494 20.1647 11.9246 20.1463 11.9062C20.128 11.8879 20.1031 11.8776 20.0772 11.8776H18.9595V9.7154C18.9592 9.68473 18.9469 9.6554 18.9252 9.6337C18.9035 9.61201 18.8741 9.59968 18.8435 9.59936H10.4393H9.46207C9.458 9.59915 9.45392 9.59915 9.44985 9.59936C9.42027 9.60274 9.39309 9.61723 9.37381 9.63992C9.35452 9.6626 9.34459 9.69178 9.34602 9.72151V11.566C9.34634 11.5967 9.35867 11.626 9.38037 11.6477C9.40206 11.6694 9.43139 11.6818 9.46207 11.6821H10.3232V11.8775H5.58368V5.09791C5.58368 5.072 5.57338 5.04715 5.55505 5.02882C5.53673 5.01049 5.51187 5.00019 5.48596 5.00019H3.0978C3.09374 4.99994 3.08958 4.99982 3.08551 5.00007ZM3.19545 5.19552H5.38816V11.9751C5.38816 12.0011 5.39845 12.0259 5.41678 12.0442C5.43511 12.0626 5.45996 12.0729 5.48588 12.0729H10.3232V14.2716H5.48588C5.45996 14.2716 5.43511 14.2819 5.41678 14.3003C5.39845 14.3186 5.38816 14.3434 5.38816 14.3694V19.121H3.19545V5.19552ZM7.83729 9.12886C7.13315 9.12886 6.55467 9.70735 6.55467 10.4115C6.55467 11.1156 7.13315 11.6819 7.83729 11.6819C8.54142 11.6819 9.10769 11.1156 9.10769 10.4115C9.10769 9.70735 8.54142 9.12886 7.83729 9.12886ZM7.83729 9.36096C8.41465 9.36096 8.87559 9.83409 8.87559 10.4115C8.87559 10.9889 8.41465 11.4498 7.83729 11.4498C7.25992 11.4498 6.79286 10.9888 6.79286 10.4115C6.79286 9.83409 7.2599 9.36096 7.83729 9.36096ZM10.5614 9.83124H18.7213V15.8717H10.5554V11.6024C10.5593 11.5906 10.5614 11.5782 10.5615 11.5657L10.5614 9.83124ZM9.58418 9.83734H10.3232V11.4437H9.58418V9.83734ZM18.9595 12.0729H19.9795V12.6103V19.121H17.7868V16.1037H18.8434C18.8741 16.1034 18.9034 16.0911 18.9251 16.0694C18.9468 16.0477 18.9592 16.0184 18.9595 15.9877L18.9595 12.0729Z" fill="black" stroke="black" stroke-width="0.5"/>
</g>
</g>
</svg>
