<svg width="24" height="24" viewBox="0 0 24 24" fill="none" xmlns="http://www.w3.org/2000/svg">
<g id="Washing">
<g id="Group">
<path id="Vector" d="M6.65446 3.00027C6.61584 3.00832 6.57977 3.02566 6.54936 3.05078C6.51894 3.07591 6.49511 3.10806 6.47991 3.14446L5.02277 6.54442C5.00833 6.57534 5.00057 6.60896 5 6.64308V19.7571C5.00001 19.8216 5.02559 19.8833 5.07114 19.9289C5.11668 19.9744 5.17845 20 5.24286 20H19.3286C19.393 20 19.4547 19.9744 19.5003 19.9289C19.5458 19.8833 19.5714 19.8216 19.5714 19.7571V6.64308C19.5708 6.60896 19.5631 6.57534 19.5486 6.54442L18.0915 3.14446C18.0725 3.10183 18.0417 3.06556 18.0027 3.03999C17.9636 3.01442 17.9181 3.00062 17.8714 3.00027H6.7C6.69241 2.99991 6.68482 2.99991 6.67723 3.00027C6.66965 2.99991 6.66205 2.99991 6.65446 3.00027ZM6.85937 3.48598H17.712L18.9643 6.40022H5.60714L6.85937 3.48598ZM14.7143 4.45739C14.446 4.45739 14.2286 4.67485 14.2286 4.94309C14.2286 5.21134 14.446 5.42881 14.7143 5.42881C14.9825 5.42881 15.2 5.21134 15.2 4.94309C15.2 4.67485 14.9825 4.45739 14.7143 4.45739ZM16.6571 4.45739C16.3889 4.45739 16.1714 4.67485 16.1714 4.94309C16.1714 5.21134 16.3889 5.42881 16.6571 5.42881C16.9254 5.42881 17.1428 5.21134 17.1428 4.94309C17.1428 4.67485 16.9254 4.45739 16.6571 4.45739ZM5.48571 6.88592H19.0857V19.5143H5.48571V6.88592ZM12.2857 8.5859C9.74019 8.5859 7.67143 10.6546 7.67143 13.2001C7.67143 15.7456 9.74019 17.8143 12.2857 17.8143C14.8312 17.8143 16.9 15.7456 16.9 13.2001C16.9 10.6546 14.8312 8.5859 12.2857 8.5859ZM12.2857 9.0716C14.5687 9.0716 16.4143 10.9171 16.4143 13.2001C16.4143 15.4831 14.5687 17.3286 12.2857 17.3286C10.0027 17.3286 8.15714 15.4831 8.15714 13.2001C8.15714 10.9171 10.0027 9.0716 12.2857 9.0716ZM12.2857 10.2859C10.6945 10.2859 9.39618 11.5691 9.37142 13.1546C9.36568 13.1847 9.36568 13.2156 9.37142 13.2456C9.39618 14.8311 10.6945 16.1143 12.2857 16.1143C13.8923 16.1143 15.2 14.8067 15.2 13.2001C15.2 11.5935 13.8923 10.2859 12.2857 10.2859ZM12.2857 10.7716C13.6298 10.7716 14.7143 11.856 14.7143 13.2001C14.7143 13.2358 14.7082 13.2711 14.7067 13.3064C14.3076 13.5365 14.0249 13.6057 13.8187 13.5948C13.5962 13.5829 13.425 13.4924 13.2192 13.3367C12.8076 13.0253 12.2924 12.4715 11.3143 12.4715C10.6965 12.4715 10.327 12.557 9.90267 12.7675C10.1052 11.63 11.0887 10.7716 12.2857 10.7716ZM11.3143 12.9573C12.1178 12.9573 12.4526 13.3677 12.9232 13.7238C13.1585 13.9018 13.4412 14.0616 13.796 14.0804C14.0414 14.0933 14.3095 14.0346 14.6156 13.8983C14.3162 14.8997 13.3864 15.6286 12.2857 15.6286C10.9874 15.6286 9.93517 14.617 9.86473 13.3367C10.377 13.0375 10.6145 12.9573 11.3143 12.9573Z" fill="black"/>
</g>
</g>
</svg>
