<svg width="24" height="24" viewBox="0 0 24 24" fill="none" xmlns="http://www.w3.org/2000/svg">
<g id="Work">
<g id="Group">
<g id="Vector">
<path d="M7.07767 18.4209H4.99268V18.6526H7.07767V18.4209Z" fill="black"/>
<path d="M7.32767 18.4209V18.1709H7.07767H4.99268H4.74268V18.4209V18.6526V18.9026H4.99268H7.07767H7.32767V18.6526V18.4209Z" stroke="black" stroke-opacity="0.4" stroke-width="0.5"/>
</g>
<g id="Vector_2">
<path d="M21.3016 21.0156V12.166V11.9343V9.84935H6.12748V4.03455C6.12748 3.96505 6.17382 3.91871 6.24332 3.91871H8.32831L7.74914 4.49788C7.70281 4.54421 7.70281 4.59054 7.72598 4.63688L8.58314 5.9342C8.58314 5.98054 8.58314 6.05003 8.58314 6.09637C8.58314 6.6987 8.8148 7.2547 9.2318 7.67169L9.3013 7.74119C9.32447 7.76436 9.34763 7.76436 9.39397 7.76436C9.4403 7.76436 9.46347 7.74119 9.48663 7.74119L12.452 4.77587C12.4751 4.75271 12.4751 4.72954 12.4751 4.68321C12.4751 4.63688 12.452 4.61371 12.452 4.59054L12.3825 4.52104C11.9655 4.10404 11.4095 3.87238 10.8071 3.87238C10.7376 3.87238 10.6913 3.87238 10.645 3.87238L9.34763 3.01522C9.3013 2.99205 9.2318 2.99205 9.20863 3.03838L8.55997 3.68705H6.24332C6.05798 3.68705 5.89582 3.84921 5.89582 4.03455V9.84935H3V11.9343V12.166V21.0156H9.3013V12.166H21.0699V21.0156H21.3016ZM12.174 4.70637L9.3708 7.50953C9.00014 7.13886 8.8148 6.65236 8.8148 6.11953C8.8148 5.5867 9.0233 5.10021 9.39397 4.70637C9.76463 4.33571 10.2743 4.12721 10.8071 4.12721C11.3168 4.15038 11.8033 4.33571 12.174 4.70637ZM9.27813 3.29322L10.2975 3.96505C9.90363 4.05771 9.53297 4.26621 9.2318 4.54421C8.93064 4.84537 8.7453 5.19287 8.65264 5.60987L7.98081 4.61371L9.27813 3.29322ZM3.23167 14.2973H9.06964V16.1507H3.23167V14.2973ZM3.23167 20.784V16.3823H9.06964V20.784H3.23167ZM9.0928 14.0657H3.23167V12.166H9.06964V14.0657H9.0928ZM9.32447 11.9343H3.23167V10.081H21.0699V11.9343H9.32447Z" fill="black"/>
<path d="M21.3016 21.2656H21.5516V21.0156V12.166V11.9343V9.84935V9.59935H21.3016H6.37748V4.16871H7.72475L7.57237 4.3211L7.74662 4.49535L7.57236 4.3211C7.51863 4.37484 7.47461 4.44691 7.46343 4.53637C7.45258 4.62311 7.47637 4.69667 7.50237 4.74868L7.5091 4.76214L7.51739 4.77469L8.33314 6.00933V6.00952V6.00986V6.0102V6.01054V6.01087V6.01121V6.01155V6.01189V6.01223V6.01257V6.01291V6.01325V6.01359V6.01393V6.01427V6.01461V6.01495V6.01529V6.01562V6.01596V6.0163V6.01664V6.01698V6.01732V6.01766V6.018V6.01834V6.01868V6.01902V6.01936V6.0197V6.02003V6.02037V6.02071V6.02105V6.02139V6.02173V6.02207V6.02241V6.02275V6.02309V6.02342V6.02376V6.0241V6.02444V6.02478V6.02512V6.02546V6.02579V6.02613V6.02647V6.02681V6.02715V6.02749V6.02782V6.02816V6.0285V6.02884V6.02917V6.02951V6.02985V6.03019V6.03052V6.03086V6.0312V6.03154V6.03187V6.03221V6.03255V6.03288V6.03322V6.03356V6.03389V6.03423V6.03456V6.0349V6.03524V6.03557V6.03591V6.03624V6.03658V6.03691V6.03725V6.03758V6.03792V6.03825V6.03859V6.03892V6.03926V6.03959V6.03992V6.04026V6.04059V6.04092V6.04126V6.04159V6.04192V6.04226V6.04259V6.04292V6.04325V6.04359V6.04392V6.04425V6.04458V6.04491V6.04524V6.04557V6.04591V6.04624V6.04657V6.0469V6.04723V6.04756V6.04789V6.04822V6.04855V6.04887V6.0492V6.04953V6.04986V6.05019V6.05052V6.05085V6.05117V6.0515V6.05183V6.05215V6.05248V6.05281V6.05313V6.05346V6.05379V6.05411V6.05444V6.05476V6.05509V6.05541V6.05574V6.05606V6.05638V6.05671V6.05703V6.05735V6.05768V6.058V6.05832V6.05864V6.05896V6.05929V6.05961V6.05993V6.06025V6.06057V6.06089V6.06121V6.06153V6.06185V6.06217V6.06248V6.0628V6.06312V6.06344V6.06376V6.06407V6.06439V6.06471V6.06502V6.06534V6.06565V6.06597V6.06628V6.0666V6.06691V6.06723V6.06754V6.06785V6.06817V6.06848V6.06879V6.0691V6.06942V6.06973V6.07004V6.07035V6.07066V6.07097V6.07128V6.07159V6.0719V6.07221V6.07251V6.07282V6.07313V6.07344V6.07374V6.07405V6.07436V6.07466V6.07497V6.07527V6.07558V6.07588V6.07618V6.07649V6.07679V6.07709V6.07739V6.0777V6.078V6.0783V6.0786V6.0789V6.0792V6.0795V6.0798V6.0801V6.08039V6.08069V6.08099V6.08129V6.08158V6.08188V6.08217V6.08247V6.08276V6.08306V6.08335V6.08365V6.08394V6.08423V6.08452V6.08482V6.08511V6.0854V6.08569V6.08598V6.08627V6.08656V6.08684V6.08713V6.08742V6.08771V6.08799V6.08828V6.08857V6.08885V6.08914V6.08942V6.0897V6.08999V6.09027V6.09055V6.09083V6.09112V6.0914V6.09168V6.09196V6.09224V6.09252V6.09279V6.09307V6.09335V6.09363V6.0939V6.09418V6.09445V6.09473V6.095V6.09528V6.09555V6.09582V6.0961V6.09637C8.33314 6.76464 8.59089 7.38433 9.05502 7.84847L9.12452 7.91797L9.27511 7.76739L9.12453 7.91797C9.22487 8.01832 9.34918 8.01538 9.38699 8.01448C9.38981 8.01441 9.39215 8.01436 9.39397 8.01436C9.45069 8.01436 9.49559 8.00186 9.52529 7.99119H9.59019L9.66341 7.91797L12.6287 4.95265C12.7291 4.8523 12.7261 4.72799 12.7252 4.69019C12.7252 4.68736 12.7251 4.68502 12.7251 4.68321C12.7251 4.62648 12.7126 4.58158 12.702 4.55188V4.48699L12.6287 4.41377L12.5592 4.34427C12.0951 3.88013 11.4754 3.62238 10.8071 3.62238H10.8067H10.8063H10.8059H10.8055H10.8051H10.8047H10.8043H10.8039H10.8035H10.8031H10.8027H10.8023H10.8019H10.8015H10.8011H10.8007H10.8003H10.7999H10.7995H10.7991H10.7987H10.7983H10.7979H10.7975H10.7971H10.7967H10.7963H10.7959H10.7955H10.7951H10.7948H10.7944H10.794H10.7936H10.7932H10.7928H10.7924H10.792H10.7916H10.7913H10.7909H10.7905H10.7901H10.7897H10.7893H10.7889H10.7886H10.7882H10.7878H10.7874H10.787H10.7866H10.7863H10.7859H10.7855H10.7851H10.7847H10.7844H10.784H10.7836H10.7832H10.7829H10.7825H10.7821H10.7817H10.7814H10.781H10.7806H10.7802H10.7799H10.7795H10.7791H10.7787H10.7784H10.778H10.7776H10.7773H10.7769H10.7765H10.7762H10.7758H10.7754H10.7751H10.7747H10.7743H10.774H10.7736H10.7732H10.7729H10.7725H10.7721H10.7718H10.7714H10.771H10.7707H10.7703H10.77H10.7696H10.7692H10.7689H10.7685H10.7682H10.7678H10.7674H10.7671H10.7667H10.7664H10.766H10.7657H10.7653H10.765H10.7646H10.7642H10.7639H10.7635H10.7632H10.7628H10.7625H10.7621H10.7618H10.7614H10.7611H10.7607H10.7604H10.76H10.7597H10.7593H10.759H10.7586H10.7583H10.7579H10.7576H10.7572H10.7569H10.7566H10.7562H10.7559H10.7555H10.7552H10.7548H10.7545H10.7542H10.7538H10.7535H10.7531H10.7528H10.7524H10.7521H10.7518H10.7514H10.7511H10.7507H10.7504H10.7501H10.7497H10.7494H10.7491H10.7487H10.7484H10.7481H10.7477H10.7474H10.747H10.7467H10.7464H10.746H10.7457H10.7454H10.745H10.7447H10.7444H10.744H10.7437H10.7434H10.7431H10.7427H10.7424H10.7421H10.7417H10.7414H10.7411H10.7408H10.7404H10.7401H10.7398H10.7394H10.7391H10.7388H10.7385H10.7381H10.7378H10.7375H10.7372H10.7368H10.7365H10.7362H10.7359H10.7355H10.7352H10.7349H10.7346H10.7343H10.7339H10.7336H10.7333H10.733H10.7327H10.7323H10.732H10.7317H10.7314H10.7311H10.7307H10.7304H10.7301H10.7298H10.7295H10.7292H10.7288H10.7285H10.7282H10.7279H10.7276H10.7273H10.727H10.7266H10.7263H10.726H10.7257H10.7254H10.7251H10.7248H10.7245H10.7241H10.7238H10.7235H10.7232H10.7229H10.7226H10.7223H10.722H10.7217H10.7213H10.721H10.7207H10.7204H10.7201H10.7201L9.48545 2.80663L9.4729 2.79834L9.45944 2.79161C9.39649 2.76013 9.31935 2.74365 9.24184 2.75227C9.17408 2.7598 9.07817 2.79195 9.01337 2.88009L8.45642 3.43705H6.24332C5.91991 3.43705 5.64582 3.71114 5.64582 4.03455V9.59935H3H2.75V9.84935V11.9343V12.166V21.0156V21.2656H3H9.3013H9.5513V21.0156V12.416H20.8199V21.0156V21.2656H21.0699H21.3016ZM9.31231 3.61516L9.74177 3.89821C9.49304 4.01699 9.26295 4.17523 9.06223 4.36051L9.0621 4.36036L9.05502 4.36743C8.84912 4.57333 8.69145 4.79961 8.5766 5.05001L8.30226 4.64324L9.31231 3.61516ZM9.38427 7.14251C9.17246 6.85335 9.0648 6.50347 9.0648 6.11953C9.0648 5.65706 9.24417 5.23154 9.57341 4.88049C9.89468 4.56065 10.3369 4.37868 10.8015 4.37722C11.1704 4.39497 11.5183 4.50706 11.8071 4.7197L9.38427 7.14251ZM3.48167 11.6843V10.331H20.8199V11.6843H9.32447H3.48167ZM3.48167 12.416H8.81964V13.8157H3.48167V12.416ZM8.81964 15.9007H3.48167V14.5473H8.81964V15.9007ZM3.48167 16.6323H8.81964V20.534H3.48167V16.6323Z" stroke="black" stroke-opacity="0.4" stroke-width="0.5"/>
</g>
</g>
</g>
</svg>
