<?xml version="1.0" encoding="UTF-8" standalone="no" ?>
<!DOCTYPE svg PUBLIC "-//W3C//DTD SVG 1.1//EN" "http://www.w3.org/Graphics/SVG/1.1/DTD/svg11.dtd">
<svg xmlns="http://www.w3.org/2000/svg" xmlns:xlink="http://www.w3.org/1999/xlink" version="1.1" width="1080" height="1080" viewBox="0 0 1080 1080" xml:space="preserve">
<desc>Created with Fabric.js 5.2.4</desc>
<defs>
</defs>
<rect x="0" y="0" width="100%" height="100%" fill="transparent"></rect>
<g transform="matrix(1 0 0 1 540 540)" id="e94d4989-48b1-46b6-bab2-96b7a0c30728"  >
<rect style="stroke: none; stroke-width: 1; stroke-dasharray: none; stroke-linecap: butt; stroke-dashoffset: 0; stroke-linejoin: miter; stroke-miterlimit: 4; fill: rgb(255,255,255); fill-rule: nonzero; opacity: 1; visibility: hidden;" vector-effect="non-scaling-stroke"  x="-540" y="-540" rx="0" ry="0" width="1080" height="1080" />
</g>
<g transform="matrix(1 0 0 1 540 540)" id="e1de3ac1-91c6-40ae-a10f-4c7b607199c7"  >
</g>
<g transform="matrix(NaN NaN NaN NaN 0 0)"  >
<g style=""   >
</g>
</g>
<g transform="matrix(15.65 0 0 15.65 540 540)"  >
<g style=""   >
		<g transform="matrix(1 0 0 1 0.03 33.93)"  >
<path style="stroke: none; stroke-width: 1; stroke-dasharray: none; stroke-linecap: butt; stroke-dashoffset: 0; stroke-linejoin: miter; stroke-miterlimit: 4; fill: rgb(255,255,255); fill-rule: nonzero; opacity: 1;" vector-effect="non-scaling-stroke"  transform=" translate(-34.53, -79.93)" d="M 4.38 86.18 C 3.46 86.18 2.73 86.015 2.19 85.685 C 1.66 85.345 1.285 84.875 1.065 84.275 C 0.845 83.665 0.735 82.95 0.735 82.13 L 0.735 77.75 C 0.735 76.91 0.845 76.19 1.065 75.59 C 1.285 74.98 1.66 74.51 2.19 74.18 C 2.73 73.85 3.46 73.685 4.38 73.685 C 5.28 73.685 5.98 73.835 6.48 74.135 C 6.99 74.425 7.35 74.835 7.56 75.365 C 7.77 75.895 7.875 76.505 7.875 77.195 L 7.875 78.245 L 5.25 78.245 L 5.25 77.03 C 5.25 76.79 5.235 76.56 5.205 76.34 C 5.185 76.12 5.115 75.94 4.995 75.8 C 4.875 75.65 4.67 75.575 4.38 75.575 C 4.1 75.575 3.89 75.65 3.75 75.8 C 3.62 75.95 3.535 76.14 3.495 76.37 C 3.465 76.59 3.45 76.825 3.45 77.075 L 3.45 82.79 C 3.45 83.06 3.47 83.31 3.51 83.54 C 3.56 83.76 3.65 83.94 3.78 84.08 C 3.92 84.21 4.12 84.275 4.38 84.275 C 4.66 84.275 4.86 84.205 4.98 84.065 C 5.1 83.915 5.175 83.725 5.205 83.495 C 5.235 83.265 5.25 83.03 5.25 82.79 L 5.25 81.515 L 7.875 81.515 L 7.875 82.565 C 7.875 83.255 7.77 83.875 7.56 84.425 C 7.36 84.965 7.005 85.395 6.495 85.715 C 5.995 86.025 5.29 86.18 4.38 86.18 Z M 8.76715 86 L 8.76715 73.85 L 11.4521 73.85 L 11.4521 86 L 8.76715 86 Z M 13.7589 86 L 13.7589 75.845 L 11.9289 75.845 L 11.9289 73.85 L 18.2739 73.85 L 18.2739 75.845 L 16.4589 75.845 L 16.4589 86 L 13.7589 86 Z M 20.2736 86 L 20.2736 81.035 L 17.9636 73.85 L 20.4986 73.85 L 21.6536 77.69 L 22.6886 73.85 L 25.1186 73.85 L 22.8536 81.035 L 22.8536 86 L 20.2736 86 Z M 32.0039 86.18 C 31.2439 86.18 30.6089 86.045 30.0989 85.775 C 29.5889 85.505 29.2039 85.09 28.9439 84.53 C 28.6839 83.96 28.5389 83.225 28.5089 82.325 L 30.8039 81.98 C 30.8139 82.5 30.8589 82.92 30.9389 83.24 C 31.0289 83.56 31.1489 83.79 31.2989 83.93 C 31.4589 84.07 31.6489 84.14 31.8689 84.14 C 32.1489 84.14 32.3289 84.045 32.4089 83.855 C 32.4989 83.665 32.5439 83.465 32.5439 83.255 C 32.5439 82.755 32.4239 82.335 32.1839 81.995 C 31.9439 81.645 31.6189 81.295 31.2089 80.945 L 30.1589 80.03 C 29.6989 79.64 29.3089 79.2 28.9889 78.71 C 28.6789 78.21 28.5239 77.595 28.5239 76.865 C 28.5239 75.835 28.8289 75.05 29.4389 74.51 C 30.0489 73.96 30.8789 73.685 31.9289 73.685 C 32.5789 73.685 33.0989 73.795 33.4889 74.015 C 33.8889 74.235 34.1889 74.525 34.3889 74.885 C 34.5989 75.235 34.7389 75.61 34.8089 76.01 C 34.8889 76.4 34.9339 76.775 34.9439 77.135 L 32.6339 77.42 C 32.6239 77.06 32.5989 76.75 32.5589 76.49 C 32.5289 76.22 32.4589 76.015 32.3489 75.875 C 32.2389 75.725 32.0689 75.65 31.8389 75.65 C 31.5889 75.65 31.4039 75.755 31.2839 75.965 C 31.1739 76.175 31.1189 76.385 31.1189 76.595 C 31.1189 77.045 31.2239 77.415 31.4339 77.705 C 31.6539 77.985 31.9389 78.28 32.2889 78.59 L 33.2939 79.475 C 33.8239 79.925 34.2689 80.435 34.6289 81.005 C 34.9989 81.575 35.1839 82.28 35.1839 83.12 C 35.1839 83.69 35.0539 84.21 34.7939 84.68 C 34.5339 85.14 34.1639 85.505 33.6839 85.775 C 33.2139 86.045 32.6539 86.18 32.0039 86.18 Z M 36.859 86 L 35.389 73.85 L 37.669 73.85 L 38.389 80.93 L 39.304 73.865 L 41.089 73.865 L 42.049 80.885 L 42.784 73.85 L 45.034 73.85 L 43.579 86 L 41.239 86 L 40.204 78.665 L 39.229 86 L 36.859 86 Z M 44.8357 86 L 47.1307 73.85 L 50.1907 73.85 L 52.4557 86 L 49.9807 86 L 49.5757 83.435 L 47.7907 83.435 L 47.3707 86 L 44.8357 86 Z M 48.0307 81.83 L 49.3207 81.83 L 48.6757 77.09 L 48.0307 81.83 Z M 53.0824 86 L 53.0824 73.85 L 57.1624 73.85 C 57.8924 73.85 58.4924 73.99 58.9624 74.27 C 59.4324 74.54 59.7824 74.94 60.0124 75.47 C 60.2424 75.99 60.3574 76.625 60.3574 77.375 C 60.3574 78.315 60.2024 79.035 59.8924 79.535 C 59.5824 80.025 59.1624 80.365 58.6324 80.555 C 58.1024 80.745 57.5074 80.84 56.8474 80.84 L 55.7674 80.84 L 55.7674 86 L 53.0824 86 Z M 55.7674 78.965 L 56.6674 78.965 C 56.9974 78.965 57.2474 78.905 57.4174 78.785 C 57.5874 78.665 57.6974 78.485 57.7474 78.245 C 57.8074 78.005 57.8374 77.7 57.8374 77.33 C 57.8374 77.02 57.8124 76.75 57.7624 76.52 C 57.7224 76.28 57.6174 76.09 57.4474 75.95 C 57.2774 75.81 57.0124 75.74 56.6524 75.74 L 55.7674 75.74 L 55.7674 78.965 Z M 61.0518 86 L 61.0518 73.85 L 65.1318 73.85 C 65.8618 73.85 66.4618 73.99 66.9318 74.27 C 67.4018 74.54 67.7518 74.94 67.9818 75.47 C 68.2118 75.99 68.3268 76.625 68.3268 77.375 C 68.3268 78.315 68.1718 79.035 67.8618 79.535 C 67.5518 80.025 67.1318 80.365 66.6018 80.555 C 66.0718 80.745 65.4768 80.84 64.8168 80.84 L 63.7368 80.84 L 63.7368 86 L 61.0518 86 Z M 63.7368 78.965 L 64.6368 78.965 C 64.9668 78.965 65.2168 78.905 65.3868 78.785 C 65.5568 78.665 65.6668 78.485 65.7168 78.245 C 65.7768 78.005 65.8068 77.7 65.8068 77.33 C 65.8068 77.02 65.7818 76.75 65.7318 76.52 C 65.6918 76.28 65.5868 76.09 65.4168 75.95 C 65.2468 75.81 64.9818 75.74 64.6218 75.74 L 63.7368 75.74 L 63.7368 78.965 Z" stroke-linecap="round" />
</g>
		<g transform="matrix(1 0 0 1 -12.5 -13.95)"  >
<path style="stroke: none; stroke-width: 1; stroke-dasharray: none; stroke-linecap: butt; stroke-dashoffset: 0; stroke-linejoin: miter; stroke-miterlimit: 4; fill: rgb(255,255,255); fill-rule: nonzero; opacity: 1;" vector-effect="non-scaling-stroke"  transform=" translate(-22, -32.05)" d="M 42 2.85807 L 2 0 L 2 64.099 L 32.6667 64.099 L 32.6667 6.3724 L 42 7.26091 L 42 2.85807 Z M 11.3333 53.4323 L 8.66667 53.4323 L 8.66667 45.4323 L 11.3333 45.4323 L 11.3333 53.4323 Z M 11.3333 42.7656 L 8.66667 42.7656 L 8.66667 18.7656 L 11.3333 18.7656 L 11.3333 42.7656 Z M 11.3333 16.099 L 8.66667 16.099 L 8.66667 8.09896 L 11.3333 8.09896 L 11.3333 16.099 Z M 19.3333 53.4323 L 16.6667 53.4323 L 16.6667 45.4323 L 19.3333 45.4323 L 19.3333 53.4323 Z M 19.3333 42.7656 L 16.6667 42.7656 L 16.6667 18.7656 L 19.3333 18.7656 L 19.3333 42.7656 Z M 19.3333 16.099 L 16.6667 16.099 L 16.6667 8.09896 L 19.3333 8.09896 L 19.3333 16.099 Z M 27.3333 53.4323 L 24.6667 53.4323 L 24.6667 45.4323 L 27.3333 45.4323 L 27.3333 53.4323 Z M 27.3333 42.7656 L 24.6667 42.7656 L 24.6667 18.7656 L 27.3333 18.7656 L 27.3333 42.7656 Z M 27.3333 16.099 L 24.6667 16.099 L 24.6667 8.09896 L 27.3333 8.09896 L 27.3333 16.099 Z" stroke-linecap="round" />
</g>
		<g transform="matrix(1 0 0 1 16.17 -9.3)"  >
<path style="stroke: none; stroke-width: 1; stroke-dasharray: none; stroke-linecap: butt; stroke-dashoffset: 0; stroke-linejoin: miter; stroke-miterlimit: 4; fill: rgb(255,255,255); fill-rule: nonzero; opacity: 1;" vector-effect="non-scaling-stroke"  transform=" translate(-50.67, -36.7)" d="M 35.3335 9.30435 L 35.3335 64.1045 L 66.0002 64.1045 L 66.0002 12.2244 L 35.3335 9.30435 Z M 44.6668 53.4323 L 42.0002 53.4323 L 42.0002 48.0989 L 44.6668 48.0989 L 44.6668 53.4323 Z M 44.6668 45.4323 L 42.0002 45.4323 L 42.0002 25.4323 L 44.6668 25.4323 L 44.6668 45.4323 Z M 44.6668 22.7656 L 42.0002 22.7656 L 42.0002 17.4323 L 44.6668 17.4323 L 44.6668 22.7656 Z M 51.3335 53.4323 L 48.6668 53.4323 L 48.6668 48.0989 L 51.3335 48.0989 L 51.3335 53.4323 Z M 51.3335 45.4323 L 48.6668 45.4323 L 48.6668 25.4323 L 51.3335 25.4323 L 51.3335 45.4323 Z M 51.3335 22.7656 L 48.6668 22.7656 L 48.6668 17.4323 L 51.3335 17.4323 L 51.3335 22.7656 Z M 58.0002 53.4323 L 55.3335 53.4323 L 55.3335 48.0989 L 58.0002 48.0989 L 58.0002 53.4323 Z M 58.0002 45.4323 L 55.3335 45.4323 L 55.3335 25.4323 L 58.0002 25.4323 L 58.0002 45.4323 Z M 58.0002 22.7656 L 55.3335 22.7656 L 55.3335 17.4323 L 58.0002 17.4323 L 58.0002 22.7656 Z" stroke-linecap="round" />
</g>
		<g transform="matrix(1 0 0 1 -0.5 23)"  >
<rect style="stroke: none; stroke-width: 1; stroke-dasharray: none; stroke-linecap: butt; stroke-dashoffset: 0; stroke-linejoin: miter; stroke-miterlimit: 4; fill: rgb(255,255,255); fill-rule: nonzero; opacity: 1;" vector-effect="non-scaling-stroke"  x="-33" y="-2" rx="0" ry="0" width="66" height="4" />
</g>
		<g transform="matrix(-1 0 0 -1 -1 20.67)"  >
<rect style="stroke: none; stroke-width: 1; stroke-dasharray: none; stroke-linecap: butt; stroke-dashoffset: 0; stroke-linejoin: miter; stroke-miterlimit: 4; fill: rgb(255,255,255); fill-rule: nonzero; opacity: 1;" vector-effect="non-scaling-stroke"  x="-33" y="-2" rx="0" ry="0" width="66" height="4" />
</g>
</g>
</g>
</svg>