<svg width="69" height="92" viewBox="0 0 69 92" fill="none" xmlns="http://www.w3.org/2000/svg">
<path d="M4.38 86.18C3.46 86.18 2.73 86.015 2.19 85.685C1.66 85.345 1.285 84.875 1.065 84.275C0.845 83.665 0.735 82.95 0.735 82.13L0.735 77.75C0.735 76.91 0.845 76.19 1.065 75.59C1.285 74.98 1.66 74.51 2.19 74.18C2.73 73.85 3.46 73.685 4.38 73.685C5.28 73.685 5.98 73.835 6.48 74.135C6.99 74.425 7.35 74.835 7.56 75.365C7.77 75.895 7.875 76.505 7.875 77.195V78.245H5.25V77.03C5.25 76.79 5.235 76.56 5.205 76.34C5.185 76.12 5.115 75.94 4.995 75.8C4.875 75.65 4.67 75.575 4.38 75.575C4.1 75.575 3.89 75.65 3.75 75.8C3.62 75.95 3.535 76.14 3.495 76.37C3.465 76.59 3.45 76.825 3.45 77.075L3.45 82.79C3.45 83.06 3.47 83.31 3.51 83.54C3.56 83.76 3.65 83.94 3.78 84.08C3.92 84.21 4.12 84.275 4.38 84.275C4.66 84.275 4.86 84.205 4.98 84.065C5.1 83.915 5.175 83.725 5.205 83.495C5.235 83.265 5.25 83.03 5.25 82.79V81.515H7.875V82.565C7.875 83.255 7.77 83.875 7.56 84.425C7.36 84.965 7.005 85.395 6.495 85.715C5.995 86.025 5.29 86.18 4.38 86.18ZM8.76715 86L8.76715 73.85H11.4521L11.4521 86H8.76715ZM13.7589 86L13.7589 75.845H11.9289V73.85H18.2739V75.845H16.4589V86H13.7589ZM20.2736 86V81.035L17.9636 73.85H20.4986L21.6536 77.69L22.6886 73.85H25.1186L22.8536 81.035V86H20.2736ZM32.0039 86.18C31.2439 86.18 30.6089 86.045 30.0989 85.775C29.5889 85.505 29.2039 85.09 28.9439 84.53C28.6839 83.96 28.5389 83.225 28.5089 82.325L30.8039 81.98C30.8139 82.5 30.8589 82.92 30.9389 83.24C31.0289 83.56 31.1489 83.79 31.2989 83.93C31.4589 84.07 31.6489 84.14 31.8689 84.14C32.1489 84.14 32.3289 84.045 32.4089 83.855C32.4989 83.665 32.5439 83.465 32.5439 83.255C32.5439 82.755 32.4239 82.335 32.1839 81.995C31.9439 81.645 31.6189 81.295 31.2089 80.945L30.1589 80.03C29.6989 79.64 29.3089 79.2 28.9889 78.71C28.6789 78.21 28.5239 77.595 28.5239 76.865C28.5239 75.835 28.8289 75.05 29.4389 74.51C30.0489 73.96 30.8789 73.685 31.9289 73.685C32.5789 73.685 33.0989 73.795 33.4889 74.015C33.8889 74.235 34.1889 74.525 34.3889 74.885C34.5989 75.235 34.7389 75.61 34.8089 76.01C34.8889 76.4 34.9339 76.775 34.9439 77.135L32.6339 77.42C32.6239 77.06 32.5989 76.75 32.5589 76.49C32.5289 76.22 32.4589 76.015 32.3489 75.875C32.2389 75.725 32.0689 75.65 31.8389 75.65C31.5889 75.65 31.4039 75.755 31.2839 75.965C31.1739 76.175 31.1189 76.385 31.1189 76.595C31.1189 77.045 31.2239 77.415 31.4339 77.705C31.6539 77.985 31.9389 78.28 32.2889 78.59L33.2939 79.475C33.8239 79.925 34.2689 80.435 34.6289 81.005C34.9989 81.575 35.1839 82.28 35.1839 83.12C35.1839 83.69 35.0539 84.21 34.7939 84.68C34.5339 85.14 34.1639 85.505 33.6839 85.775C33.2139 86.045 32.6539 86.18 32.0039 86.18ZM36.859 86L35.389 73.85H37.669L38.389 80.93L39.304 73.865H41.089L42.049 80.885L42.784 73.85H45.034L43.579 86H41.239L40.204 78.665L39.229 86H36.859ZM44.8357 86L47.1307 73.85H50.1907L52.4557 86H49.9807L49.5757 83.435H47.7907L47.3707 86H44.8357ZM48.0307 81.83H49.3207L48.6757 77.09L48.0307 81.83ZM53.0824 86V73.85H57.1624C57.8924 73.85 58.4924 73.99 58.9624 74.27C59.4324 74.54 59.7824 74.94 60.0124 75.47C60.2424 75.99 60.3574 76.625 60.3574 77.375C60.3574 78.315 60.2024 79.035 59.8924 79.535C59.5824 80.025 59.1624 80.365 58.6324 80.555C58.1024 80.745 57.5074 80.84 56.8474 80.84H55.7674V86H53.0824ZM55.7674 78.965H56.6674C56.9974 78.965 57.2474 78.905 57.4174 78.785C57.5874 78.665 57.6974 78.485 57.7474 78.245C57.8074 78.005 57.8374 77.7 57.8374 77.33C57.8374 77.02 57.8124 76.75 57.7624 76.52C57.7224 76.28 57.6174 76.09 57.4474 75.95C57.2774 75.81 57.0124 75.74 56.6524 75.74H55.7674V78.965ZM61.0518 86V73.85H65.1318C65.8618 73.85 66.4618 73.99 66.9318 74.27C67.4018 74.54 67.7518 74.94 67.9818 75.47C68.2118 75.99 68.3268 76.625 68.3268 77.375C68.3268 78.315 68.1718 79.035 67.8618 79.535C67.5518 80.025 67.1318 80.365 66.6018 80.555C66.0718 80.745 65.4768 80.84 64.8168 80.84H63.7368V86H61.0518ZM63.7368 78.965H64.6368C64.9668 78.965 65.2168 78.905 65.3868 78.785C65.5568 78.665 65.6668 78.485 65.7168 78.245C65.7768 78.005 65.8068 77.7 65.8068 77.33C65.8068 77.02 65.7818 76.75 65.7318 76.52C65.6918 76.28 65.5868 76.09 65.4168 75.95C65.2468 75.81 64.9818 75.74 64.6218 75.74H63.7368V78.965Z" fill="#664F94"/>
<path d="M42 2.85807L2 0V64.099H32.6667V6.3724L42 7.26091V2.85807ZM11.3333 53.4323H8.66667V45.4323H11.3333V53.4323ZM11.3333 42.7656H8.66667V18.7656H11.3333V42.7656ZM11.3333 16.099H8.66667V8.09896H11.3333V16.099ZM19.3333 53.4323H16.6667V45.4323H19.3333V53.4323ZM19.3333 42.7656H16.6667V18.7656H19.3333V42.7656ZM19.3333 16.099H16.6667V8.09896H19.3333V16.099ZM27.3333 53.4323H24.6667V45.4323H27.3333V53.4323ZM27.3333 42.7656H24.6667V18.7656H27.3333V42.7656ZM27.3333 16.099H24.6667V8.09896H27.3333V16.099Z" fill="#664F94"/>
<path d="M35.3335 9.30435V64.1045H66.0002V12.2244L35.3335 9.30435ZM44.6668 53.4323H42.0002V48.0989H44.6668V53.4323ZM44.6668 45.4323H42.0002V25.4323H44.6668V45.4323ZM44.6668 22.7656H42.0002V17.4323H44.6668V22.7656ZM51.3335 53.4323H48.6668V48.0989H51.3335V53.4323ZM51.3335 45.4323H48.6668V25.4323H51.3335V45.4323ZM51.3335 22.7656H48.6668V17.4323H51.3335V22.7656ZM58.0002 53.4323H55.3335V48.0989H58.0002V53.4323ZM58.0002 45.4323H55.3335V25.4323H58.0002V45.4323ZM58.0002 22.7656H55.3335V17.4323H58.0002V22.7656Z" fill="#9B83CB"/>
<mask id="mask0_800_56877" style="mask-type:alpha" maskUnits="userSpaceOnUse" x="1" y="64" width="65" height="6">
<path d="M7.35287 64L6.97873 64.3741L7.58542 64.9808H2.13872V65.51H7.58542L6.97873 66.1167L7.35287 66.4908L8.59827 65.2454L7.35287 64ZM2.7454 67.175L1.5 68.4204L2.7454 69.6658L3.11954 69.2917L2.51286 68.685H7.95955L66 68.5L7.95955 68.1558H2.51286L3.11954 67.5491L2.7454 67.175Z" fill="black"/>
</mask>
<g mask="url(#mask0_800_56877)">
<rect x="1" y="67" width="66" height="4" fill="#9B83CB"/>
</g>
<mask id="mask1_800_56877" style="mask-type:alpha" maskUnits="userSpaceOnUse" x="1" y="66" width="65" height="6">
<path d="M60.1471 71.6658L60.5213 71.2917L59.9146 70.685H65.3613V70.1558H59.9146L60.5213 69.5491L60.1471 69.175L58.9017 70.4204L60.1471 71.6658ZM64.7546 68.4908L66 67.2454L64.7546 66L64.3805 66.3741L64.9871 66.9808H59.5404L1.5 67.1658L59.5404 67.51H64.9871L64.3805 68.1167L64.7546 68.4908Z" fill="black"/>
</mask>
<g mask="url(#mask1_800_56877)">
<rect x="66.5" y="68.6658" width="66" height="4" transform="rotate(-180 66.5 68.6658)" fill="#9B83CB"/>
</g>
</svg>
